<svg width="79" height="17" viewBox="0 0 79 17" fill="none" xmlns="http://www.w3.org/2000/svg">
<path d="M5.37 8.92527H3.69V13.1553H1.275V2.65527H3.69V6.90027H5.43L8.19 2.65527H10.755L7.32 7.72527L10.86 13.1553H8.1L5.37 8.92527ZM15.4812 13.2753C14.6312 13.2753 13.8662 13.1003 13.1862 12.7503C12.5162 12.3903 11.9912 11.8953 11.6112 11.2653C11.2312 10.6353 11.0412 9.92027 11.0412 9.12027C11.0412 8.32027 11.2312 7.60527 11.6112 6.97527C11.9912 6.34527 12.5162 5.85527 13.1862 5.50527C13.8662 5.14527 14.6312 4.96527 15.4812 4.96527C16.3312 4.96527 17.0912 5.14527 17.7612 5.50527C18.4312 5.85527 18.9562 6.34527 19.3362 6.97527C19.7162 7.60527 19.9062 8.32027 19.9062 9.12027C19.9062 9.92027 19.7162 10.6353 19.3362 11.2653C18.9562 11.8953 18.4312 12.3903 17.7612 12.7503C17.0912 13.1003 16.3312 13.2753 15.4812 13.2753ZM15.4812 11.3553C16.0812 11.3553 16.5712 11.1553 16.9512 10.7553C17.3412 10.3453 17.5362 9.80027 17.5362 9.12027C17.5362 8.44027 17.3412 7.90027 16.9512 7.50027C16.5712 7.09027 16.0812 6.88527 15.4812 6.88527C14.8812 6.88527 14.3862 7.09027 13.9962 7.50027C13.6062 7.90027 13.4112 8.44027 13.4112 9.12027C13.4112 9.80027 13.6062 10.3453 13.9962 10.7553C14.3862 11.1553 14.8812 11.3553 15.4812 11.3553ZM21.5156 5.08527H23.8406V8.23527H27.3506V5.08527H29.6906V13.1553H27.3506V10.1403H23.8406V13.1553H21.5156V5.08527ZM38.7107 7.00527H35.9807V13.1553H33.6557V7.00527H30.9257V5.08527H38.7107V7.00527ZM43.093 4.96527C44.343 4.96527 45.303 5.26527 45.973 5.86527C46.643 6.45527 46.978 7.35027 46.978 8.55027V13.1553H44.788V12.1503C44.348 12.9003 43.528 13.2753 42.328 13.2753C41.708 13.2753 41.168 13.1703 40.708 12.9603C40.258 12.7503 39.913 12.4603 39.673 12.0903C39.433 11.7203 39.313 11.3003 39.313 10.8303C39.313 10.0803 39.593 9.49027 40.153 9.06027C40.723 8.63027 41.598 8.41527 42.778 8.41527H44.638C44.638 7.90527 44.483 7.51527 44.173 7.24527C43.863 6.96527 43.398 6.82527 42.778 6.82527C42.348 6.82527 41.923 6.89527 41.503 7.03527C41.093 7.16527 40.743 7.34527 40.453 7.57527L39.613 5.94027C40.053 5.63027 40.578 5.39027 41.188 5.22027C41.808 5.05027 42.443 4.96527 43.093 4.96527ZM42.913 11.7003C43.313 11.7003 43.668 11.6103 43.978 11.4303C44.288 11.2403 44.508 10.9653 44.638 10.6053V9.78027H43.033C42.073 9.78027 41.593 10.0953 41.593 10.7253C41.593 11.0253 41.708 11.2653 41.938 11.4453C42.178 11.6153 42.503 11.7003 42.913 11.7003ZM52.5657 10.0953H51.3507V13.1553H49.0107V5.08527H51.3507V8.22027H52.6107L54.8007 5.08527H57.2907L54.4707 8.95527L57.4857 13.1553H54.7257L52.5657 10.0953ZM65.3415 7.00527H62.6115V13.1553H60.2865V7.00527H57.5565V5.08527H65.3415V7.00527ZM70.8339 7.66527C71.8839 7.67527 72.6789 7.91027 73.2189 8.37027C73.7589 8.83027 74.0289 9.49027 74.0289 10.3503C74.0289 11.2503 73.7239 11.9453 73.1139 12.4353C72.5039 12.9253 71.6389 13.1703 70.5189 13.1703L66.5889 13.1553V5.08527H68.9139V7.66527H70.8339ZM74.8989 5.08527H77.2239V13.1553H74.8989V5.08527ZM70.3089 11.5053C70.7589 11.5153 71.1039 11.4203 71.3439 11.2203C71.5839 11.0203 71.7039 10.7203 71.7039 10.3203C71.7039 9.93027 71.5839 9.64527 71.3439 9.46527C71.1139 9.28527 70.7689 9.19027 70.3089 9.18027L68.9139 9.16527V11.5053H70.3089Z" fill="white"/>
</svg>
