<svg width="258" height="13" viewBox="0 0 258 13" fill="none" xmlns="http://www.w3.org/2000/svg">
<path d="M5.252 10.1943C4.40267 10.1943 3.627 9.99061 2.925 9.58327C2.23167 9.17594 1.68133 8.62127 1.274 7.91927C0.875333 7.21727 0.676 6.44594 0.676 5.60527C0.676 4.76461 0.875333 3.99327 1.274 3.29127C1.68133 2.58927 2.236 2.03461 2.938 1.62727C3.64 1.21994 4.42 1.01627 5.278 1.01627C6.136 1.01627 6.91167 1.21561 7.605 1.61427C8.307 2.01294 8.85733 2.56327 9.256 3.26527C9.65467 3.95861 9.854 4.72994 9.854 5.57927C9.854 6.42861 9.65033 7.20861 9.243 7.91927C8.83567 8.62127 8.281 9.17594 7.579 9.58327C6.877 9.99061 6.10133 10.1943 5.252 10.1943ZM5.252 9.71327C6.01467 9.71327 6.708 9.53127 7.332 9.16727C7.956 8.79461 8.45 8.29627 8.814 7.67227C9.178 7.03961 9.36 6.34194 9.36 5.57927C9.36 4.81661 9.18233 4.12761 8.827 3.51227C8.47167 2.88827 7.982 2.39861 7.358 2.04327C6.74267 1.67927 6.04933 1.49727 5.278 1.49727C4.50667 1.49727 3.80467 1.67927 3.172 2.04327C2.548 2.40727 2.054 2.90561 1.69 3.53827C1.33467 4.16227 1.157 4.85127 1.157 5.60527C1.157 6.35927 1.33467 7.05261 1.69 7.68527C2.054 8.30927 2.548 8.80327 3.172 9.16727C3.796 9.53127 4.48933 9.71327 5.252 9.71327ZM5.369 8.30927C4.85767 8.30927 4.394 8.19661 3.978 7.97127C3.57067 7.73727 3.25 7.41661 3.016 7.00927C2.782 6.59327 2.665 6.12527 2.665 5.60527C2.665 5.08527 2.782 4.62161 3.016 4.21427C3.25 3.79827 3.57067 3.47761 3.978 3.25227C4.394 3.01827 4.85767 2.90127 5.369 2.90127C5.811 2.90127 6.20967 2.99227 6.565 3.17427C6.929 3.34761 7.21933 3.59027 7.436 3.90227L6.877 4.31827C6.695 4.06694 6.474 3.88061 6.214 3.75927C5.954 3.63794 5.668 3.57727 5.356 3.57727C4.79267 3.57727 4.32467 3.76361 3.952 4.13627C3.588 4.50894 3.406 4.99861 3.406 5.60527C3.406 6.21194 3.588 6.70161 3.952 7.07427C4.32467 7.44694 4.79267 7.63327 5.356 7.63327C5.668 7.63327 5.954 7.57261 6.214 7.45127C6.474 7.32994 6.695 7.14361 6.877 6.89227L7.436 7.29527C7.21933 7.61594 6.929 7.86727 6.565 8.04927C6.20967 8.22261 5.811 8.30927 5.369 8.30927ZM20.8041 9.32327V10.1553H14.4211V9.49227L18.2041 5.78727C18.6807 5.31927 19.0014 4.91627 19.1661 4.57827C19.3394 4.23161 19.4261 3.88494 19.4261 3.53827C19.4261 3.00094 19.2397 2.58494 18.8671 2.29027C18.5031 1.98694 17.9787 1.83527 17.2941 1.83527C16.2281 1.83527 15.4004 2.17327 14.8111 2.84927L14.1481 2.27727C14.5034 1.86127 14.9541 1.54061 15.5001 1.31527C16.0547 1.08994 16.6787 0.977273 17.3721 0.977273C18.2994 0.977273 19.0317 1.19827 19.5691 1.64027C20.1151 2.07361 20.3881 2.67161 20.3881 3.43427C20.3881 3.90227 20.2841 4.35294 20.0761 4.78627C19.8681 5.21961 19.4737 5.71794 18.8931 6.28127L15.7991 9.32327H20.8041ZM25.555 10.2333C24.853 10.2333 24.2246 10.0469 23.67 9.67427C23.124 9.30161 22.695 8.76861 22.383 8.07527C22.0796 7.37327 21.928 6.54994 21.928 5.60527C21.928 4.66061 22.0796 3.84161 22.383 3.14827C22.695 2.44627 23.124 1.90894 23.67 1.53627C24.2246 1.16361 24.853 0.977273 25.555 0.977273C26.257 0.977273 26.881 1.16361 27.427 1.53627C27.9816 1.90894 28.415 2.44627 28.727 3.14827C29.039 3.84161 29.195 4.66061 29.195 5.60527C29.195 6.54994 29.039 7.37327 28.727 8.07527C28.415 8.76861 27.9816 9.30161 27.427 9.67427C26.881 10.0469 26.257 10.2333 25.555 10.2333ZM25.555 9.37527C26.0836 9.37527 26.5473 9.22794 26.946 8.93327C27.3533 8.63861 27.6696 8.20961 27.895 7.64627C28.1203 7.08294 28.233 6.40261 28.233 5.60527C28.233 4.80794 28.1203 4.12761 27.895 3.56427C27.6696 3.00094 27.3533 2.57194 26.946 2.27727C26.5473 1.98261 26.0836 1.83527 25.555 1.83527C25.0263 1.83527 24.5583 1.98261 24.151 2.27727C23.7523 2.57194 23.4403 3.00094 23.215 3.56427C22.9896 4.12761 22.877 4.80794 22.877 5.60527C22.877 6.40261 22.9896 7.08294 23.215 7.64627C23.4403 8.20961 23.7523 8.63861 24.151 8.93327C24.5583 9.22794 25.0263 9.37527 25.555 9.37527ZM36.724 9.32327V10.1553H30.341V9.49227L34.124 5.78727C34.6007 5.31927 34.9213 4.91627 35.086 4.57827C35.2593 4.23161 35.346 3.88494 35.346 3.53827C35.346 3.00094 35.1597 2.58494 34.787 2.29027C34.423 1.98694 33.8987 1.83527 33.214 1.83527C32.148 1.83527 31.3203 2.17327 30.731 2.84927L30.068 2.27727C30.4233 1.86127 30.874 1.54061 31.42 1.31527C31.9747 1.08994 32.5987 0.977273 33.292 0.977273C34.2193 0.977273 34.9517 1.19827 35.489 1.64027C36.035 2.07361 36.308 2.67161 36.308 3.43427C36.308 3.90227 36.204 4.35294 35.996 4.78627C35.788 5.21961 35.3937 5.71794 34.813 6.28127L31.719 9.32327H36.724ZM41.4749 10.2333C40.7729 10.2333 40.1445 10.0469 39.5899 9.67427C39.0439 9.30161 38.6149 8.76861 38.3029 8.07527C37.9995 7.37327 37.8479 6.54994 37.8479 5.60527C37.8479 4.66061 37.9995 3.84161 38.3029 3.14827C38.6149 2.44627 39.0439 1.90894 39.5899 1.53627C40.1445 1.16361 40.7729 0.977273 41.4749 0.977273C42.1769 0.977273 42.8009 1.16361 43.3469 1.53627C43.9015 1.90894 44.3349 2.44627 44.6469 3.14827C44.9589 3.84161 45.1149 4.66061 45.1149 5.60527C45.1149 6.54994 44.9589 7.37327 44.6469 8.07527C44.3349 8.76861 43.9015 9.30161 43.3469 9.67427C42.8009 10.0469 42.1769 10.2333 41.4749 10.2333ZM41.4749 9.37527C42.0035 9.37527 42.4672 9.22794 42.8659 8.93327C43.2732 8.63861 43.5895 8.20961 43.8149 7.64627C44.0402 7.08294 44.1529 6.40261 44.1529 5.60527C44.1529 4.80794 44.0402 4.12761 43.8149 3.56427C43.5895 3.00094 43.2732 2.57194 42.8659 2.27727C42.4672 1.98261 42.0035 1.83527 41.4749 1.83527C40.9462 1.83527 40.4782 1.98261 40.0709 2.27727C39.6722 2.57194 39.3602 3.00094 39.1349 3.56427C38.9095 4.12761 38.7969 4.80794 38.7969 5.60527C38.7969 6.40261 38.9095 7.08294 39.1349 7.64627C39.3602 8.20961 39.6722 8.63861 40.0709 8.93327C40.4782 9.22794 40.9462 9.37527 41.4749 9.37527ZM54.3296 10.2333C53.151 10.2333 52.2323 9.89527 51.5736 9.21927C50.915 8.54327 50.5856 7.55961 50.5856 6.26827V1.05527H51.5476V6.22927C51.5476 7.28661 51.786 8.07527 52.2626 8.59527C52.7393 9.11527 53.4283 9.37527 54.3296 9.37527C55.2396 9.37527 55.933 9.11527 56.4096 8.59527C56.8863 8.07527 57.1246 7.28661 57.1246 6.22927V1.05527H58.0606V6.26827C58.0606 7.55961 57.7313 8.54327 57.0726 9.21927C56.4226 9.89527 55.5083 10.2333 54.3296 10.2333ZM64.2485 3.26527C65.1065 3.26527 65.7869 3.51661 66.2895 4.01927C66.8009 4.51327 67.0565 5.23694 67.0565 6.19027V10.1553H66.1335V6.28127C66.1335 5.57061 65.9559 5.02894 65.6005 4.65627C65.2452 4.28361 64.7382 4.09727 64.0795 4.09727C63.3429 4.09727 62.7579 4.31827 62.3245 4.76027C61.8999 5.19361 61.6875 5.79594 61.6875 6.56727V10.1553H60.7645V3.31727H61.6485V4.57827C61.8999 4.16227 62.2465 3.84161 62.6885 3.61627C63.1392 3.38227 63.6592 3.26527 64.2485 3.26527ZM69.5624 3.31727H70.4854V10.1553H69.5624V3.31727ZM70.0304 1.82227C69.8397 1.82227 69.6794 1.75727 69.5494 1.62727C69.4194 1.49727 69.3544 1.34127 69.3544 1.15927C69.3544 0.98594 69.4194 0.834273 69.5494 0.704273C69.6794 0.574273 69.8397 0.509273 70.0304 0.509273C70.2211 0.509273 70.3814 0.574273 70.5114 0.704273C70.6414 0.825606 70.7064 0.97294 70.7064 1.14627C70.7064 1.33694 70.6414 1.49727 70.5114 1.62727C70.3814 1.75727 70.2211 1.82227 70.0304 1.82227ZM78.7996 3.31727L75.7576 10.1553H74.8086L71.7796 3.31727H72.7416L75.3026 9.14127L77.8896 3.31727H78.7996ZM85.8631 7.02227H80.1431C80.1951 7.73294 80.4681 8.30927 80.9621 8.75127C81.4561 9.18461 82.0801 9.40127 82.8341 9.40127C83.2587 9.40127 83.6487 9.32761 84.0041 9.18027C84.3594 9.02427 84.6671 8.79894 84.9271 8.50427L85.4471 9.10227C85.1437 9.46627 84.7624 9.74361 84.3031 9.93427C83.8524 10.1249 83.3541 10.2203 82.8081 10.2203C82.1061 10.2203 81.4821 10.0729 80.9361 9.77827C80.3987 9.47494 79.9784 9.05894 79.6751 8.53027C79.3717 8.00161 79.2201 7.40361 79.2201 6.73627C79.2201 6.06894 79.3631 5.47094 79.6491 4.94227C79.9437 4.41361 80.3424 4.00194 80.8451 3.70727C81.3564 3.41261 81.9284 3.26527 82.5611 3.26527C83.1937 3.26527 83.7614 3.41261 84.2641 3.70727C84.7667 4.00194 85.1611 4.41361 85.4471 4.94227C85.7331 5.46227 85.8761 6.06027 85.8761 6.73627L85.8631 7.02227ZM82.5611 4.05827C81.9024 4.05827 81.3477 4.27061 80.8971 4.69527C80.4551 5.11127 80.2037 5.65727 80.1431 6.33327H84.9921C84.9314 5.65727 84.6757 5.11127 84.2251 4.69527C83.7831 4.27061 83.2284 4.05827 82.5611 4.05827ZM88.6388 4.65627C88.8554 4.19694 89.1761 3.85027 89.6008 3.61627C90.0341 3.38227 90.5671 3.26527 91.1998 3.26527V4.16227L90.9788 4.14927C90.2594 4.14927 89.6961 4.37027 89.2888 4.81227C88.8814 5.25427 88.6778 5.87394 88.6778 6.67127V10.1553H87.7548V3.31727H88.6388V4.65627ZM94.7548 10.2203C94.2001 10.2203 93.6671 10.1423 93.1558 9.98627C92.6531 9.82161 92.2588 9.61794 91.9728 9.37527L92.3888 8.64727C92.6748 8.87261 93.0344 9.05894 93.4678 9.20627C93.9011 9.34494 94.3518 9.41427 94.8198 9.41427C95.4438 9.41427 95.9031 9.31894 96.1978 9.12827C96.5011 8.92894 96.6528 8.65161 96.6528 8.29627C96.6528 8.04494 96.5704 7.84994 96.4058 7.71127C96.2411 7.56394 96.0331 7.45561 95.7818 7.38627C95.5304 7.30827 95.1968 7.23461 94.7808 7.16527C94.2261 7.06127 93.7798 6.95727 93.4418 6.85327C93.1038 6.74061 92.8134 6.55427 92.5708 6.29427C92.3368 6.03427 92.2198 5.67461 92.2198 5.21527C92.2198 4.64327 92.4581 4.17527 92.9348 3.81127C93.4114 3.44727 94.0744 3.26527 94.9238 3.26527C95.3658 3.26527 95.8078 3.32594 96.2498 3.44727C96.6918 3.55994 97.0558 3.71161 97.3418 3.90227L96.9388 4.64327C96.3754 4.25327 95.7038 4.05827 94.9238 4.05827C94.3344 4.05827 93.8881 4.16227 93.5848 4.37027C93.2901 4.57827 93.1428 4.85127 93.1428 5.18927C93.1428 5.44927 93.2251 5.65727 93.3898 5.81327C93.5631 5.96927 93.7754 6.08627 94.0268 6.16427C94.2781 6.23361 94.6248 6.30727 95.0668 6.38527C95.6128 6.48927 96.0504 6.59327 96.3798 6.69727C96.7091 6.80127 96.9908 6.97894 97.2248 7.23027C97.4588 7.48161 97.5758 7.82827 97.5758 8.27027C97.5758 8.86827 97.3244 9.34494 96.8218 9.70027C96.3278 10.0469 95.6388 10.2203 94.7548 10.2203ZM105.236 7.02227H99.5161C99.5681 7.73294 99.8411 8.30927 100.335 8.75127C100.829 9.18461 101.453 9.40127 102.207 9.40127C102.632 9.40127 103.022 9.32761 103.377 9.18027C103.732 9.02427 104.04 8.79894 104.3 8.50427L104.82 9.10227C104.517 9.46627 104.135 9.74361 103.676 9.93427C103.225 10.1249 102.727 10.2203 102.181 10.2203C101.479 10.2203 100.855 10.0729 100.309 9.77827C99.7718 9.47494 99.3515 9.05894 99.0481 8.53027C98.7448 8.00161 98.5931 7.40361 98.5931 6.73627C98.5931 6.06894 98.7361 5.47094 99.0221 4.94227C99.3168 4.41361 99.7155 4.00194 100.218 3.70727C100.729 3.41261 101.301 3.26527 101.934 3.26527C102.567 3.26527 103.134 3.41261 103.637 3.70727C104.14 4.00194 104.534 4.41361 104.82 4.94227C105.106 5.46227 105.249 6.06027 105.249 6.73627L105.236 7.02227ZM101.934 4.05827C101.275 4.05827 100.721 4.27061 100.27 4.69527C99.8281 5.11127 99.5768 5.65727 99.5161 6.33327H104.365C104.304 5.65727 104.049 5.11127 103.598 4.69527C103.156 4.27061 102.601 4.05827 101.934 4.05827ZM107.232 8.80327C107.431 8.80327 107.596 8.87261 107.726 9.01127C107.856 9.14127 107.921 9.30594 107.921 9.50527C107.921 9.60927 107.903 9.72194 107.869 9.84327C107.843 9.96461 107.799 10.1033 107.739 10.2593L107.193 12.0533H106.569L107.011 10.1683C106.872 10.1249 106.759 10.0469 106.673 9.93427C106.586 9.81294 106.543 9.66994 106.543 9.50527C106.543 9.30594 106.608 9.14127 106.738 9.01127C106.868 8.87261 107.032 8.80327 107.232 8.80327ZM118.927 5.46227C119.56 5.59227 120.041 5.84794 120.37 6.22927C120.699 6.60194 120.864 7.09161 120.864 7.69827C120.864 8.48694 120.582 9.09361 120.019 9.51827C119.464 9.94294 118.645 10.1553 117.562 10.1553H113.532V1.05527H117.315C118.286 1.05527 119.044 1.25461 119.59 1.65327C120.136 2.05194 120.409 2.62827 120.409 3.38227C120.409 3.89361 120.279 4.32694 120.019 4.68227C119.759 5.02894 119.395 5.28894 118.927 5.46227ZM114.481 5.17627H117.263C117.965 5.17627 118.502 5.03327 118.875 4.74727C119.256 4.46127 119.447 4.04527 119.447 3.49927C119.447 2.95327 119.256 2.53727 118.875 2.25127C118.502 1.96527 117.965 1.82227 117.263 1.82227H114.481V5.17627ZM117.562 9.38827C119.131 9.38827 119.915 8.80327 119.915 7.63327C119.915 6.48927 119.131 5.91727 117.562 5.91727H114.481V9.38827H117.562ZM125.908 10.2203C125.232 10.2203 124.626 10.0729 124.088 9.77827C123.56 9.48361 123.144 9.07194 122.84 8.54327C122.537 8.00594 122.385 7.40361 122.385 6.73627C122.385 6.06894 122.537 5.47094 122.84 4.94227C123.144 4.41361 123.56 4.00194 124.088 3.70727C124.626 3.41261 125.232 3.26527 125.908 3.26527C126.498 3.26527 127.022 3.38227 127.481 3.61627C127.949 3.84161 128.318 4.17527 128.586 4.61727L127.897 5.08527C127.672 4.74727 127.386 4.49594 127.039 4.33127C126.693 4.15794 126.316 4.07127 125.908 4.07127C125.414 4.07127 124.968 4.18394 124.569 4.40927C124.179 4.62594 123.872 4.93794 123.646 5.34527C123.43 5.75261 123.321 6.21627 123.321 6.73627C123.321 7.26494 123.43 7.73294 123.646 8.14027C123.872 8.53894 124.179 8.85094 124.569 9.07627C124.968 9.29294 125.414 9.40127 125.908 9.40127C126.316 9.40127 126.693 9.31894 127.039 9.15427C127.386 8.98961 127.672 8.73827 127.897 8.40027L128.586 8.86827C128.318 9.31027 127.949 9.64827 127.481 9.88227C127.013 10.1076 126.489 10.2203 125.908 10.2203ZM136.239 7.02227H130.519C130.571 7.73294 130.844 8.30927 131.338 8.75127C131.832 9.18461 132.456 9.40127 133.21 9.40127C133.635 9.40127 134.025 9.32761 134.38 9.18027C134.736 9.02427 135.043 8.79894 135.303 8.50427L135.823 9.10227C135.52 9.46627 135.139 9.74361 134.679 9.93427C134.229 10.1249 133.73 10.2203 133.184 10.2203C132.482 10.2203 131.858 10.0729 131.312 9.77827C130.775 9.47494 130.355 9.05894 130.051 8.53027C129.748 8.00161 129.596 7.40361 129.596 6.73627C129.596 6.06894 129.739 5.47094 130.025 4.94227C130.32 4.41361 130.719 4.00194 131.221 3.70727C131.733 3.41261 132.305 3.26527 132.937 3.26527C133.57 3.26527 134.138 3.41261 134.64 3.70727C135.143 4.00194 135.537 4.41361 135.823 4.94227C136.109 5.46227 136.252 6.06027 136.252 6.73627L136.239 7.02227ZM132.937 4.05827C132.279 4.05827 131.724 4.27061 131.273 4.69527C130.831 5.11127 130.58 5.65727 130.519 6.33327H135.368C135.308 5.65727 135.052 5.11127 134.601 4.69527C134.159 4.27061 133.605 4.05827 132.937 4.05827ZM147.834 3.31727V10.1553H146.911V4.13627H142.621V10.1553H141.698V3.31727H147.834ZM153.981 3.26527C154.622 3.26527 155.203 3.41261 155.723 3.70727C156.243 3.99327 156.65 4.40061 156.945 4.92927C157.239 5.45794 157.387 6.06027 157.387 6.73627C157.387 7.42094 157.239 8.02761 156.945 8.55627C156.65 9.08494 156.243 9.49661 155.723 9.79127C155.211 10.0773 154.631 10.2203 153.981 10.2203C153.426 10.2203 152.923 10.1076 152.473 9.88227C152.031 9.64827 151.667 9.31027 151.381 8.86827V12.6773H150.458V3.31727H151.342V4.66927C151.619 4.21861 151.983 3.87194 152.434 3.62927C152.893 3.38661 153.409 3.26527 153.981 3.26527ZM153.916 9.40127C154.392 9.40127 154.826 9.29294 155.216 9.07627C155.606 8.85094 155.909 8.53461 156.126 8.12727C156.351 7.71994 156.464 7.25627 156.464 6.73627C156.464 6.21627 156.351 5.75694 156.126 5.35827C155.909 4.95094 155.606 4.63461 155.216 4.40927C154.826 4.18394 154.392 4.07127 153.916 4.07127C153.43 4.07127 152.993 4.18394 152.603 4.40927C152.221 4.63461 151.918 4.95094 151.693 5.35827C151.476 5.75694 151.368 6.21627 151.368 6.73627C151.368 7.25627 151.476 7.71994 151.693 8.12727C151.918 8.53461 152.221 8.85094 152.603 9.07627C152.993 9.29294 153.43 9.40127 153.916 9.40127ZM161.685 3.26527C162.577 3.26527 163.262 3.49061 163.739 3.94127C164.215 4.38327 164.454 5.04194 164.454 5.91727V10.1553H163.57V9.08927C163.362 9.44461 163.054 9.72194 162.647 9.92127C162.248 10.1206 161.771 10.2203 161.217 10.2203C160.454 10.2203 159.847 10.0383 159.397 9.67427C158.946 9.31027 158.721 8.82927 158.721 8.23127C158.721 7.65061 158.929 7.18261 159.345 6.82727C159.769 6.47194 160.441 6.29427 161.36 6.29427H163.531V5.87827C163.531 5.28894 163.366 4.84261 163.037 4.53927C162.707 4.22727 162.226 4.07127 161.594 4.07127C161.16 4.07127 160.744 4.14494 160.346 4.29227C159.947 4.43094 159.605 4.62594 159.319 4.87727L158.903 4.18827C159.249 3.89361 159.665 3.66827 160.151 3.51227C160.636 3.34761 161.147 3.26527 161.685 3.26527ZM161.36 9.49227C161.88 9.49227 162.326 9.37527 162.699 9.14127C163.071 8.89861 163.349 8.55194 163.531 8.10127V6.98327H161.386C160.216 6.98327 159.631 7.39061 159.631 8.20527C159.631 8.60394 159.782 8.92027 160.086 9.15427C160.389 9.37961 160.814 9.49227 161.36 9.49227ZM171.266 6.61927C172.193 6.83594 172.657 7.39494 172.657 8.29627C172.657 8.89427 172.436 9.35361 171.994 9.67427C171.552 9.99494 170.893 10.1553 170.018 10.1553H166.911V3.31727H169.927C170.707 3.31727 171.318 3.46894 171.76 3.77227C172.202 4.07561 172.423 4.50894 172.423 5.07227C172.423 5.44494 172.319 5.76561 172.111 6.03427C171.911 6.29427 171.63 6.48927 171.266 6.61927ZM167.808 6.35927H169.862C170.39 6.35927 170.793 6.25961 171.071 6.06027C171.357 5.86094 171.5 5.57061 171.5 5.18927C171.5 4.80794 171.357 4.52194 171.071 4.33127C170.793 4.14061 170.39 4.04527 169.862 4.04527H167.808V6.35927ZM169.979 9.42727C170.568 9.42727 171.01 9.33194 171.305 9.14127C171.599 8.95061 171.747 8.65161 171.747 8.24427C171.747 7.83694 171.612 7.53794 171.344 7.34727C171.075 7.14794 170.65 7.04827 170.07 7.04827H167.808V9.42727H169.979ZM177.173 3.26527C178.066 3.26527 178.75 3.49061 179.227 3.94127C179.704 4.38327 179.942 5.04194 179.942 5.91727V10.1553H179.058V9.08927C178.85 9.44461 178.542 9.72194 178.135 9.92127C177.736 10.1206 177.26 10.2203 176.705 10.2203C175.942 10.2203 175.336 10.0383 174.885 9.67427C174.434 9.31027 174.209 8.82927 174.209 8.23127C174.209 7.65061 174.417 7.18261 174.833 6.82727C175.258 6.47194 175.929 6.29427 176.848 6.29427H179.019V5.87827C179.019 5.28894 178.854 4.84261 178.525 4.53927C178.196 4.22727 177.715 4.07127 177.082 4.07127C176.649 4.07127 176.233 4.14494 175.834 4.29227C175.435 4.43094 175.093 4.62594 174.807 4.87727L174.391 4.18827C174.738 3.89361 175.154 3.66827 175.639 3.51227C176.124 3.34761 176.636 3.26527 177.173 3.26527ZM176.848 9.49227C177.368 9.49227 177.814 9.37527 178.187 9.14127C178.56 8.89861 178.837 8.55194 179.019 8.10127V6.98327H176.874C175.704 6.98327 175.119 7.39061 175.119 8.20527C175.119 8.60394 175.271 8.92027 175.574 9.15427C175.877 9.37961 176.302 9.49227 176.848 9.49227ZM189.129 6.59327C189.615 6.70594 189.987 6.90094 190.247 7.17827C190.516 7.45561 190.65 7.79361 190.65 8.19227C190.65 8.59094 190.512 8.94627 190.234 9.25827C189.966 9.57027 189.597 9.81294 189.129 9.98627C188.661 10.1509 188.146 10.2333 187.582 10.2333C187.088 10.2333 186.603 10.1639 186.126 10.0253C185.65 9.87794 185.234 9.66561 184.878 9.38827L185.19 8.69927C185.502 8.93327 185.866 9.11527 186.282 9.24527C186.698 9.37527 187.119 9.44027 187.543 9.44027C188.176 9.44027 188.692 9.32327 189.09 9.08927C189.498 8.84661 189.701 8.52161 189.701 8.11427C189.701 7.75027 189.537 7.46861 189.207 7.26927C188.878 7.06127 188.427 6.95727 187.855 6.95727H186.685V6.28127H187.803C188.315 6.28127 188.726 6.18594 189.038 5.99527C189.35 5.79594 189.506 5.53161 189.506 5.20227C189.506 4.83827 189.329 4.55227 188.973 4.34427C188.627 4.13627 188.172 4.03227 187.608 4.03227C186.872 4.03227 186.144 4.21861 185.424 4.59127L185.164 3.87627C185.979 3.45161 186.824 3.23927 187.699 3.23927C188.219 3.23927 188.687 3.31727 189.103 3.47327C189.528 3.62061 189.857 3.83294 190.091 4.11027C190.334 4.38761 190.455 4.70827 190.455 5.07227C190.455 5.41894 190.334 5.72661 190.091 5.99527C189.857 6.26394 189.537 6.46327 189.129 6.59327ZM195.099 3.26527C195.991 3.26527 196.676 3.49061 197.153 3.94127C197.629 4.38327 197.868 5.04194 197.868 5.91727V10.1553H196.984V9.08927C196.776 9.44461 196.468 9.72194 196.061 9.92127C195.662 10.1206 195.185 10.2203 194.631 10.2203C193.868 10.2203 193.261 10.0383 192.811 9.67427C192.36 9.31027 192.135 8.82927 192.135 8.23127C192.135 7.65061 192.343 7.18261 192.759 6.82727C193.183 6.47194 193.855 6.29427 194.774 6.29427H196.945V5.87827C196.945 5.28894 196.78 4.84261 196.451 4.53927C196.121 4.22727 195.64 4.07127 195.008 4.07127C194.574 4.07127 194.158 4.14494 193.76 4.29227C193.361 4.43094 193.019 4.62594 192.733 4.87727L192.317 4.18827C192.663 3.89361 193.079 3.66827 193.565 3.51227C194.05 3.34761 194.561 3.26527 195.099 3.26527ZM194.774 9.49227C195.294 9.49227 195.74 9.37527 196.113 9.14127C196.485 8.89861 196.763 8.55194 196.945 8.10127V6.98327H194.8C193.63 6.98327 193.045 7.39061 193.045 8.20527C193.045 8.60394 193.196 8.92027 193.5 9.15427C193.803 9.37961 194.228 9.49227 194.774 9.49227ZM209.763 3.31727V10.1553H200.325V3.31727H201.248V9.34927H204.602V3.31727H205.525V9.34927H208.84V3.31727H209.763ZM210.816 9.34927V11.6503H209.945V10.1553H208.788V9.34927H210.816ZM212.398 3.31727H213.321V8.75127L217.884 3.31727H218.703V10.1553H217.78V4.72127L213.23 10.1553H212.398V3.31727ZM230.786 3.31727V10.1553H221.348V3.31727H222.271V9.34927H225.625V3.31727H226.548V9.34927H229.863V3.31727H230.786ZM231.839 9.34927V11.6503H230.968V10.1553H229.811V9.34927H231.839ZM239.401 7.02227H233.681C233.733 7.73294 234.006 8.30927 234.5 8.75127C234.994 9.18461 235.618 9.40127 236.372 9.40127C236.797 9.40127 237.187 9.32761 237.542 9.18027C237.898 9.02427 238.205 8.79894 238.465 8.50427L238.985 9.10227C238.682 9.46627 238.301 9.74361 237.841 9.93427C237.391 10.1249 236.892 10.2203 236.346 10.2203C235.644 10.2203 235.02 10.0729 234.474 9.77827C233.937 9.47494 233.517 9.05894 233.213 8.53027C232.91 8.00161 232.758 7.40361 232.758 6.73627C232.758 6.06894 232.901 5.47094 233.187 4.94227C233.482 4.41361 233.881 4.00194 234.383 3.70727C234.895 3.41261 235.467 3.26527 236.099 3.26527C236.732 3.26527 237.3 3.41261 237.802 3.70727C238.305 4.00194 238.699 4.41361 238.985 4.94227C239.271 5.46227 239.414 6.06027 239.414 6.73627L239.401 7.02227ZM236.099 4.05827C235.441 4.05827 234.886 4.27061 234.435 4.69527C233.993 5.11127 233.742 5.65727 233.681 6.33327H238.53C238.47 5.65727 238.214 5.11127 237.763 4.69527C237.321 4.27061 236.767 4.05827 236.099 4.05827ZM241.458 3.31727H242.381V6.34627H246.684V3.31727H247.607V10.1553H246.684V7.13927H242.381V10.1553H241.458V3.31727ZM253.103 5.73527C253.961 5.74394 254.615 5.93461 255.066 6.30727C255.517 6.67994 255.742 7.21727 255.742 7.91927C255.742 8.64727 255.499 9.20627 255.014 9.59627C254.529 9.98627 253.835 10.1769 252.934 10.1683L250.23 10.1553V3.31727H251.153V5.70927L253.103 5.73527ZM256.886 3.31727H257.809V10.1553H256.886V3.31727ZM252.882 9.46627C253.515 9.47494 253.991 9.34927 254.312 9.08927C254.641 8.82061 254.806 8.43061 254.806 7.91927C254.806 7.41661 254.646 7.04394 254.325 6.80127C254.004 6.55861 253.523 6.43294 252.882 6.42427L251.153 6.39827V9.44027L252.882 9.46627Z" fill="#777E89"/>
</svg>
