<svg width="64" height="12" viewBox="0 0 64 12" fill="none" xmlns="http://www.w3.org/2000/svg">
<path d="M4.37 6.92527H2.69V11.1553H0.275V0.655273H2.69V4.90027H4.43L7.19 0.655273H9.755L6.32 5.72527L9.86 11.1553H7.1L4.37 6.92527ZM14.0266 2.96527C15.2766 2.96527 16.2366 3.26527 16.9066 3.86527C17.5766 4.45527 17.9116 5.35027 17.9116 6.55027V11.1553H15.7216V10.1503C15.2816 10.9003 14.4616 11.2753 13.2616 11.2753C12.6416 11.2753 12.1016 11.1703 11.6416 10.9603C11.1916 10.7503 10.8466 10.4603 10.6066 10.0903C10.3666 9.72027 10.2466 9.30027 10.2466 8.83027C10.2466 8.08027 10.5266 7.49027 11.0866 7.06027C11.6566 6.63027 12.5316 6.41527 13.7116 6.41527H15.5716C15.5716 5.90527 15.4166 5.51527 15.1066 5.24527C14.7966 4.96527 14.3316 4.82527 13.7116 4.82527C13.2816 4.82527 12.8566 4.89527 12.4366 5.03527C12.0266 5.16527 11.6766 5.34527 11.3866 5.57527L10.5466 3.94027C10.9866 3.63027 11.5116 3.39027 12.1216 3.22027C12.7416 3.05027 13.3766 2.96527 14.0266 2.96527ZM13.8466 9.70027C14.2466 9.70027 14.6016 9.61027 14.9116 9.43027C15.2216 9.24027 15.4416 8.96527 15.5716 8.60527V7.78027H13.9666C13.0066 7.78027 12.5266 8.09527 12.5266 8.72527C12.5266 9.02527 12.6416 9.26527 12.8716 9.44527C13.1116 9.61527 13.4366 9.70027 13.8466 9.70027ZM26.7243 5.00527H23.9943V11.1553H21.6693V5.00527H18.9393V3.08527H26.7243V5.00527ZM31.1067 2.96527C32.3567 2.96527 33.3167 3.26527 33.9867 3.86527C34.6567 4.45527 34.9917 5.35027 34.9917 6.55027V11.1553H32.8017V10.1503C32.3617 10.9003 31.5417 11.2753 30.3417 11.2753C29.7217 11.2753 29.1817 11.1703 28.7217 10.9603C28.2717 10.7503 27.9267 10.4603 27.6867 10.0903C27.4467 9.72027 27.3267 9.30027 27.3267 8.83027C27.3267 8.08027 27.6067 7.49027 28.1667 7.06027C28.7367 6.63027 29.6117 6.41527 30.7917 6.41527H32.6517C32.6517 5.90527 32.4967 5.51527 32.1867 5.24527C31.8767 4.96527 31.4117 4.82527 30.7917 4.82527C30.3617 4.82527 29.9367 4.89527 29.5167 5.03527C29.1067 5.16527 28.7567 5.34527 28.4667 5.57527L27.6267 3.94027C28.0667 3.63027 28.5917 3.39027 29.2017 3.22027C29.8217 3.05027 30.4567 2.96527 31.1067 2.96527ZM30.9267 9.70027C31.3267 9.70027 31.6817 9.61027 31.9917 9.43027C32.3017 9.24027 32.5217 8.96527 32.6517 8.60527V7.78027H31.0467C30.0867 7.78027 29.6067 8.09527 29.6067 8.72527C29.6067 9.02527 29.7217 9.26527 29.9517 9.44527C30.1917 9.61527 30.5167 9.70027 30.9267 9.70027ZM44.7644 3.08527V11.1553H42.4244V5.00527H39.8744L39.7994 6.43027C39.7594 7.49027 39.6594 8.37027 39.4994 9.07027C39.3394 9.77027 39.0794 10.3203 38.7194 10.7203C38.3594 11.1203 37.8594 11.3203 37.2194 11.3203C36.8794 11.3203 36.4744 11.2603 36.0044 11.1403L36.1244 9.22027C36.2844 9.24027 36.3994 9.25027 36.4694 9.25027C36.8194 9.25027 37.0794 9.12527 37.2494 8.87527C37.4294 8.61527 37.5494 8.29027 37.6094 7.90027C37.6694 7.50027 37.7144 6.97527 37.7444 6.32527L37.8644 3.08527H44.7644ZM50.7946 11.2753C49.9446 11.2753 49.1796 11.1003 48.4996 10.7503C47.8296 10.3903 47.3046 9.89527 46.9246 9.26527C46.5446 8.63527 46.3546 7.92027 46.3546 7.12027C46.3546 6.32027 46.5446 5.60527 46.9246 4.97527C47.3046 4.34527 47.8296 3.85527 48.4996 3.50527C49.1796 3.14527 49.9446 2.96527 50.7946 2.96527C51.6446 2.96527 52.4046 3.14527 53.0746 3.50527C53.7446 3.85527 54.2696 4.34527 54.6496 4.97527C55.0296 5.60527 55.2196 6.32027 55.2196 7.12027C55.2196 7.92027 55.0296 8.63527 54.6496 9.26527C54.2696 9.89527 53.7446 10.3903 53.0746 10.7503C52.4046 11.1003 51.6446 11.2753 50.7946 11.2753ZM50.7946 9.35527C51.3946 9.35527 51.8846 9.15527 52.2646 8.75527C52.6546 8.34527 52.8496 7.80027 52.8496 7.12027C52.8496 6.44027 52.6546 5.90027 52.2646 5.50027C51.8846 5.09027 51.3946 4.88527 50.7946 4.88527C50.1946 4.88527 49.6996 5.09027 49.3096 5.50027C48.9196 5.90027 48.7246 6.44027 48.7246 7.12027C48.7246 7.80027 48.9196 8.34527 49.3096 8.75527C49.6996 9.15527 50.1946 9.35527 50.7946 9.35527ZM63.2941 5.00527H59.1541V11.1553H56.8291V3.08527H63.2941V5.00527Z" fill="white"/>
</svg>
