<svg width="45" height="12" viewBox="0 0 45 12" fill="none" xmlns="http://www.w3.org/2000/svg">
<path d="M6.33 11.3353C5.5 11.3353 4.73 11.2003 4.02 10.9303C3.32 10.6603 2.71 10.2803 2.19 9.79027C1.68 9.30027 1.28 8.72527 0.99 8.06527C0.71 7.40527 0.57 6.68527 0.57 5.90527C0.57 5.12527 0.71 4.40527 0.99 3.74527C1.28 3.08527 1.685 2.51027 2.205 2.02027C2.725 1.53027 3.335 1.15027 4.035 0.880273C4.735 0.610273 5.495 0.475273 6.315 0.475273C7.145 0.475273 7.905 0.610273 8.595 0.880273C9.295 1.15027 9.9 1.53027 10.41 2.02027C10.93 2.51027 11.335 3.08527 11.625 3.74527C11.915 4.39527 12.06 5.11527 12.06 5.90527C12.06 6.68527 11.915 7.41027 11.625 8.08027C11.335 8.74027 10.93 9.31527 10.41 9.80527C9.9 10.2853 9.295 10.6603 8.595 10.9303C7.905 11.2003 7.15 11.3353 6.33 11.3353ZM6.315 9.26527C6.785 9.26527 7.215 9.18527 7.605 9.02527C8.005 8.86527 8.355 8.63527 8.655 8.33527C8.955 8.03527 9.185 7.68027 9.345 7.27027C9.515 6.86027 9.6 6.40527 9.6 5.90527C9.6 5.40527 9.515 4.95027 9.345 4.54027C9.185 4.13027 8.955 3.77527 8.655 3.47527C8.365 3.17527 8.02 2.94527 7.62 2.78527C7.22 2.62527 6.785 2.54527 6.315 2.54527C5.845 2.54527 5.41 2.62527 5.01 2.78527C4.62 2.94527 4.275 3.17527 3.975 3.47527C3.675 3.77527 3.44 4.13027 3.27 4.54027C3.11 4.95027 3.03 5.40527 3.03 5.90527C3.03 6.39527 3.11 6.85027 3.27 7.27027C3.44 7.68027 3.67 8.03527 3.96 8.33527C4.26 8.63527 4.61 8.86527 5.01 9.02527C5.41 9.18527 5.845 9.26527 6.315 9.26527ZM18 11.1553V3.08527H20.325V6.23527H23.835V3.08527H26.175V11.1553H23.835V8.14027H20.325V11.1553H18ZM33.245 11.1553V9.58027L33.095 9.23527V6.41527C33.095 5.91527 32.94 5.52527 32.63 5.24527C32.33 4.96527 31.865 4.82527 31.235 4.82527C30.805 4.82527 30.38 4.89527 29.96 5.03527C29.55 5.16527 29.2 5.34527 28.91 5.57527L28.07 3.94027C28.51 3.63027 29.04 3.39027 29.66 3.22027C30.28 3.05027 30.91 2.96527 31.55 2.96527C32.78 2.96527 33.735 3.25527 34.415 3.83527C35.095 4.41527 35.435 5.32027 35.435 6.55027V11.1553H33.245ZM30.785 11.2753C30.155 11.2753 29.615 11.1703 29.165 10.9603C28.715 10.7403 28.37 10.4453 28.13 10.0753C27.89 9.70527 27.77 9.29027 27.77 8.83027C27.77 8.35027 27.885 7.93027 28.115 7.57027C28.355 7.21027 28.73 6.93027 29.24 6.73027C29.75 6.52027 30.415 6.41527 31.235 6.41527H33.38V7.78027H31.49C30.94 7.78027 30.56 7.87027 30.35 8.05027C30.15 8.23027 30.05 8.45527 30.05 8.72527C30.05 9.02527 30.165 9.26527 30.395 9.44527C30.635 9.61527 30.96 9.70027 31.37 9.70027C31.76 9.70027 32.11 9.61027 32.42 9.43027C32.73 9.24027 32.955 8.96527 33.095 8.60527L33.455 9.68527C33.285 10.2053 32.975 10.6003 32.525 10.8703C32.075 11.1403 31.495 11.2753 30.785 11.2753ZM41.3078 11.2753C40.4378 11.2753 39.6628 11.1003 38.9828 10.7503C38.3028 10.3903 37.7678 9.89527 37.3778 9.26527C36.9978 8.63527 36.8078 7.92027 36.8078 7.12027C36.8078 6.31027 36.9978 5.59527 37.3778 4.97527C37.7678 4.34527 38.3028 3.85527 38.9828 3.50527C39.6628 3.14527 40.4378 2.96527 41.3078 2.96527C42.1578 2.96527 42.8978 3.14527 43.5278 3.50527C44.1578 3.85527 44.6228 4.36027 44.9228 5.02027L43.1078 5.99527C42.8978 5.61527 42.6328 5.33527 42.3128 5.15527C42.0028 4.97527 41.6628 4.88527 41.2928 4.88527C40.8928 4.88527 40.5328 4.97527 40.2128 5.15527C39.8928 5.33527 39.6378 5.59027 39.4478 5.92027C39.2678 6.25027 39.1778 6.65027 39.1778 7.12027C39.1778 7.59027 39.2678 7.99027 39.4478 8.32027C39.6378 8.65027 39.8928 8.90527 40.2128 9.08527C40.5328 9.26527 40.8928 9.35527 41.2928 9.35527C41.6628 9.35527 42.0028 9.27027 42.3128 9.10027C42.6328 8.92027 42.8978 8.63527 43.1078 8.24527L44.9228 9.23527C44.6228 9.88527 44.1578 10.3903 43.5278 10.7503C42.8978 11.1003 42.1578 11.2753 41.3078 11.2753Z" fill="white"/>
</svg>
