<svg width="121" height="286" viewBox="0 0 121 286" fill="none" xmlns="http://www.w3.org/2000/svg">
<path d="M35.9235 102.345C35.9235 102.345 -32.0023 228.44 113.547 237.065L120.555 242.995V201.487L71.6554 186.393L70.2178 86.1255" fill="#E2E2E2"/>
<path d="M71.3574 165.6C59.717 170.429 50.953 191.542 50.953 216.857C50.953 218.128 50.9753 219.388 51.0198 220.637C62.8744 227.888 78.865 233.309 100.176 235.877C101.348 229.605 101.93 223.237 101.914 216.857C101.941 209.513 101.161 202.189 99.5908 195.016L71.6555 186.393L71.3574 165.6Z" fill="black"/>
<path d="M44.9905 101.463L87.0721 98.5806L94.724 101.697L98.3202 285.475H59.2338L63.3665 278.068L44.9905 101.463Z" fill="#EDEEEF"/>
<path d="M49.7446 13.0821V19.7245C49.7446 24.8606 53.251 29.3332 58.2388 30.5591L68.809 33.1571V7.18665L60.0199 5.02645C57.5449 4.41814 54.9277 4.9813 52.9219 6.55376C50.9162 8.12622 49.7446 10.5334 49.7446 13.0821V13.0821Z" fill="#EDEEEF"/>
<path d="M49.7446 19.7246C49.7446 24.8608 53.251 29.3333 58.2388 30.5592L68.809 33.1572" stroke="black" stroke-width="1.5" stroke-linecap="round" stroke-linejoin="round"/>
<path d="M60.5139 18.4067C60.7954 18.4067 61.0236 18.1785 61.0236 17.8969C61.0236 17.6154 60.7954 17.3872 60.5139 17.3872C60.2324 17.3872 60.0042 17.6154 60.0042 17.8969C60.0042 18.1785 60.2324 18.4067 60.5139 18.4067Z" fill="black"/>
<path d="M52.6848 18.4067C52.9663 18.4067 53.1945 18.1785 53.1945 17.8969C53.1945 17.6154 52.9663 17.3872 52.6848 17.3872C52.4033 17.3872 52.175 17.6154 52.175 17.8969C52.175 18.1785 52.4033 18.4067 52.6848 18.4067Z" fill="black"/>
<path d="M54.9815 20.9374V13.082H51.0464" stroke="black" stroke-width="1.5" stroke-linecap="round" stroke-linejoin="round"/>
<path d="M61.4742 13.082H57.5388" stroke="black" stroke-width="1.5" stroke-linecap="round" stroke-linejoin="round"/>
<path d="M67.5533 17.1074V19.8353C69.0249 19.8353 70.2178 18.6424 70.2178 17.1709C70.2178 17.0892 70.2141 17.0083 70.2069 16.9284C70.0576 15.2739 67.5533 15.4461 67.5533 17.1074Z" fill="#EDEEEF"/>
<path d="M67.5533 19.8353C69.0249 19.8353 70.2178 18.6424 70.2178 17.1709" stroke="black" stroke-width="1.5" stroke-linecap="round" stroke-linejoin="round"/>
<path d="M57.1334 21.8555C57.4643 22.1863 57.913 22.3722 58.381 22.3722C58.8489 22.3722 59.2976 22.1863 59.6285 21.8555" stroke="#DC911B" stroke-width="1.5" stroke-linecap="round" stroke-linejoin="round"/>
<path d="M54.9817 20.9438L56.7029 21.3669" stroke="black" stroke-width="1.5" stroke-linecap="round" stroke-linejoin="round"/>
<path d="M35.9236 60.7152V102.345L94.8982 116.84V70.4757C94.8982 54.0356 83.6747 39.7195 67.7097 35.7956H67.7097C60.0534 33.9138 51.9571 35.656 45.7524 40.5203C39.5478 45.3846 35.9236 52.8311 35.9236 60.7152V60.7152Z" fill="#DC911B"/>
<path d="M63.3667 278.069L44.9906 101.463" stroke="black" stroke-width="1.5" stroke-linecap="round" stroke-linejoin="round"/>
<path d="M55.8423 29.667C55.8423 29.667 55.8423 38.2109 41.3451 37.4415L38.0264 34.1227C38.0264 34.1227 39.86 -3.70712 65.5965 1.2088C69.6649 1.98591 73.2921 4.39522 75.2646 8.03737C77.4653 12.1008 77.8189 17.9999 68.8856 24.3984" stroke="black" stroke-width="1.5" stroke-linecap="round" stroke-linejoin="round"/>
<path d="M36.7792 35.4185C36.9139 35.4185 40.1036 38.7429 40.1036 38.7429" stroke="#DC911B" stroke-width="1.5" stroke-linecap="round" stroke-linejoin="round"/>
<path d="M49.7446 16.5815C49.7446 16.5815 58.4344 14.4252 61.0237 9.12402C61.0237 9.12402 63.8566 16.4647 67.5534 17.1071" stroke="black" stroke-width="1.5" stroke-linecap="round" stroke-linejoin="round"/>
<path d="M36.149 37.0811C36.149 37.0811 26.9843 42.2487 28.5417 54.8277C29.0337 58.9987 31.1284 62.8149 34.3829 65.4696C36.0537 66.874 38.3637 67.2406 40.3872 66.4224C42.4107 65.6042 43.8166 63.7351 44.0417 61.5641C44.3118 59.1162 44.8311 56.6029 45.7928 54.7079C49.7447 46.9209 37.8408 38.7433 37.8408 38.7433" stroke="black" stroke-width="1.5" stroke-linecap="round" stroke-linejoin="round"/>
<path d="M82.6801 43.5791C82.6801 43.5791 141.513 109.576 84.3683 143.359L75.0239 127.699L88.3217 103.466L75.0239 81.1834" stroke="black" stroke-width="1.5" stroke-linecap="round" stroke-linejoin="round"/>
<path d="M84.3682 143.359L69.7854 118.92" stroke="black" stroke-width="1.5" stroke-linecap="round" stroke-linejoin="round"/>
<path d="M14.0493 44.1605C13.5202 41.7957 13.7561 39.324 14.7229 37.102C17.485 30.6171 25.0399 14.5565 32.3083 14.0533C41.4226 13.4223 38.5474 21.4489 35.3128 23.3656C33.5078 24.5018 31.1998 24.4547 29.4426 23.2458C29.4426 23.2458 20.7128 33.8531 21.6556 37.1426C21.6556 37.1426 26.6872 37.1426 25.01 41.9346C23.5425 46.1276 15.9296 52.2467 14.0493 44.1605Z" fill="#DC911B"/>
<path d="M21.2938 31.0709C21.2938 31.0709 28.1224 25.2972 21.2938 23.3205C14.4652 21.3438 -0.809189 42.5483 1.7066 65.9092C4.22239 89.2701 20.9029 104.724 35.9235 91.9656" stroke="black" stroke-width="1.5" stroke-linecap="round" stroke-linejoin="round"/>
<path d="M21.5414 46.4941C21.5414 46.4941 22.6507 56.9238 26.1054 63.2133L29.9944 59.8769" stroke="black" stroke-width="1.5" stroke-linecap="round" stroke-linejoin="round"/>
</svg>
