<svg width="125" height="286" viewBox="0 0 125 286" fill="none" xmlns="http://www.w3.org/2000/svg">
<path d="M110.46 50.0541C110.986 47.7042 110.752 45.2479 109.791 43.0398C107.046 36.5956 99.5384 20.6357 92.3156 20.1356C83.2584 19.5085 86.1156 27.4848 89.3299 29.3896C91.1236 30.5186 93.4172 30.4718 95.1633 29.2705C95.1633 29.2705 103.838 39.8114 102.901 43.0802C102.901 43.0802 97.9014 43.0802 99.5681 47.8422C101.026 52.0089 108.592 58.0897 110.46 50.0541Z" fill="#DC911B"/>
<path d="M93.3203 117.857C93.3203 117.857 116.632 198.304 85.0291 225.088C53.4258 251.873 19.6772 264.194 19.6772 264.194L16.463 276.515L0.392212 237.409L45.3904 185.983L64.6728 107.236" fill="#E2E2E2"/>
<path d="M61.8559 160.27C57.8266 160.27 53.9751 162.084 50.4343 165.385L45.3905 185.983L34.4668 198.467C31.8733 209.408 30.391 222.055 30.391 235.531C30.3803 243.353 30.8987 251.168 31.9427 258.92C44.6007 252.966 65.2351 241.864 85.0292 225.088C87.8786 222.647 90.3361 219.783 92.3157 216.596C88.8053 184.196 76.499 160.27 61.8559 160.27Z" fill="black"/>
<path d="M83.79 105.795C83.79 105.795 90.9998 223.47 70.6366 279.185L74.8902 285.434H38.672C38.672 285.434 34.7152 135.758 34.7152 103.453L83.79 105.795Z" fill="#EDEEEF"/>
<path d="M75.3744 14.749V30.0417L56.4296 34.6981V8.89036L75.3744 4.23389V14.749Z" fill="#EDEEEF"/>
<path d="M64.6729 20.0395C64.9527 20.0395 65.1795 19.8127 65.1795 19.5329C65.1795 19.2532 64.9527 19.0264 64.6729 19.0264C64.3932 19.0264 64.1664 19.2532 64.1664 19.5329C64.1664 19.8127 64.3932 20.0395 64.6729 20.0395Z" fill="black"/>
<path d="M72.4529 20.0395C72.7327 20.0395 72.9595 19.8127 72.9595 19.5329C72.9595 19.2532 72.7327 19.0264 72.4529 19.0264C72.1732 19.0264 71.9464 19.2532 71.9464 19.5329C71.9464 19.8127 72.1732 20.0395 72.4529 20.0395Z" fill="black"/>
<path d="M70.1704 22.5547V14.7485H74.0812" stroke="black" stroke-width="1.5" stroke-linecap="round" stroke-linejoin="round"/>
<path d="M63.7186 14.7484H67.6293" stroke="black" stroke-width="1.5" stroke-linecap="round" stroke-linejoin="round"/>
<path d="M57.6775 18.7484V21.4593C56.2152 21.4593 55.0298 20.2739 55.0298 18.8116C55.0298 18.7303 55.0334 18.65 55.0406 18.5706C55.189 16.9264 57.6775 17.0976 57.6775 18.7484Z" fill="#EDEEEF"/>
<path d="M57.6775 21.4592C56.2152 21.4592 55.0298 20.2738 55.0298 18.8115" stroke="black" stroke-width="1.5" stroke-linecap="round" stroke-linejoin="round"/>
<path d="M68.46 24.4791C66.9799 24.4791 65.7802 23.2793 65.7802 21.7993" stroke="#DC911B" stroke-width="1.5" stroke-linecap="round" stroke-linejoin="round"/>
<path d="M75.3746 30.0415L56.4297 34.6978" stroke="black" stroke-width="1.5" stroke-linecap="round" stroke-linejoin="round"/>
<path d="M70.1705 22.561L68.4601 22.9814" stroke="black" stroke-width="1.5" stroke-linecap="round" stroke-linejoin="round"/>
<path d="M34.7152 62.0832V103.453L93.3203 117.857V71.7826C93.3203 55.4455 82.1671 41.2191 66.3022 37.3198H66.3021C58.6938 35.4498 50.6482 37.181 44.4825 42.0148C38.3167 46.8487 34.7152 54.2485 34.7152 62.0832V62.0832Z" fill="#DC911B"/>
<path d="M83.79 105.795C83.79 105.795 90.9998 223.47 70.6366 279.185" stroke="black" stroke-width="1.5" stroke-linecap="round" stroke-linejoin="round"/>
<path d="M58.7875 16.6807C58.7875 16.6807 61.9998 16.5022 70.1705 10.52V12.8414C70.1705 12.8414 74.8591 11.5021 76.1984 9.18066" stroke="black" stroke-width="1.5" stroke-linecap="round" stroke-linejoin="round"/>
<path d="M76.6256 8.27192C76.6256 8.27192 86.734 -5.10501 58.7873 4.23385L61.823 0.921875C61.823 0.921875 46.9121 5.74903 55.6622 17.4204" stroke="black" stroke-width="1.5" stroke-linecap="round" stroke-linejoin="round"/>
<path d="M75.0972 18.2583C75.0972 18.2583 78.7956 13.2904 77.3109 7.21045" stroke="black" stroke-width="1.5" stroke-linecap="round" stroke-linejoin="round"/>
<path d="M40.2111 46.2617C40.2111 46.2617 3.7339 75.6993 9.44824 113.2C15.1626 150.7 52.9102 153.2 52.9102 153.2L58.7875 142.843L34.7154 103.453L57.6776 79.985" stroke="black" stroke-width="1.5" stroke-linecap="round" stroke-linejoin="round"/>
<path d="M52.9099 153.2L64.9686 131.95" stroke="black" stroke-width="1.5" stroke-linecap="round" stroke-linejoin="round"/>
<path d="M82.4921 46.2617C82.4921 46.2617 94.6872 59.0324 100.64 73.3183" stroke="black" stroke-width="1.5" stroke-linecap="round" stroke-linejoin="round"/>
<path d="M92.3157 102.605C92.3157 102.605 96.8301 112.129 109.211 115.224C121.506 118.297 134.505 63.3784 106.941 28.1059C106.351 27.3358 105.524 26.7808 104.588 26.5266C102.887 26.0856 100.695 26.711 101.601 33.5563C101.601 33.5563 97.7825 32.2043 99.6873 36.5708C101.592 40.9373 105.131 57.8765 98.4804 68.6928" stroke="black" stroke-width="1.5" stroke-linecap="round" stroke-linejoin="round"/>
</svg>
