<svg width="1920" height="1758" viewBox="0 0 1920 1758" fill="none" xmlns="http://www.w3.org/2000/svg">
<path d="M1560 1500.68C1683.52 1500.68 1932.61 1616.82 1928 1757.5" stroke="black" stroke-width="1.5"/>
<path d="M599.445 990.028C639.626 990.028 672.199 957.455 672.199 917.274C672.199 877.094 639.626 844.521 599.445 844.521C559.264 844.521 526.691 877.094 526.691 917.274C526.691 957.455 559.264 990.028 599.445 990.028Z" fill="#EDEEEF"/>
<path fill-rule="evenodd" clip-rule="evenodd" d="M599.445 990.028C639.626 990.028 672.199 957.455 672.199 917.274C672.199 877.094 639.626 844.521 599.445 844.521C559.264 844.521 526.691 877.094 526.691 917.274C526.691 957.455 559.264 990.028 599.445 990.028Z" stroke="black" stroke-width="1.5"/>
<rect x="572.997" y="826.155" width="52.8956" height="182.238" fill="#EDEEEF"/>
<path d="M507.309 894.619L533.757 848.81L691.58 939.93L665.132 985.738L507.309 894.619Z" fill="#EDEEEF"/>
<path d="M533.757 985.738L507.309 939.929L665.132 848.81L691.58 894.619L533.757 985.738Z" fill="#EDEEEF"/>
<path d="M599.445 935.463C609.49 935.463 617.633 927.32 617.633 917.274C617.633 907.229 609.49 899.086 599.445 899.086C589.4 899.086 581.256 907.229 581.256 917.274C581.256 927.32 589.4 935.463 599.445 935.463Z" fill="#DC911B"/>
<path d="M581.257 917.274C581.257 907.229 589.4 899.086 599.445 899.086" stroke="black" stroke-width="1.5"/>
<path d="M541.202 1120.93C534.932 1055.38 496.004 958.402 496.004 958.402L461.976 937.4L465.737 989.837L470.808 1039.89L513.844 1136.7L553.172 1124.35L541.202 1120.93Z" fill="#E2E2E2"/>
<path d="M485.864 945.569C485.864 945.569 493.535 1070.77 471.869 1130.05L476.395 1136.7H437.859C437.859 1136.7 433.649 977.449 433.649 943.076L485.864 945.569Z" fill="#EDEEEF"/>
<path d="M472.184 848.696V864.968L452.027 869.922V842.463L472.184 837.509V848.696V848.696Z" fill="#EDEEEF"/>
<path d="M460.797 854.326C461.095 854.326 461.336 854.085 461.336 853.787C461.336 853.489 461.095 853.248 460.797 853.248C460.499 853.248 460.258 853.489 460.258 853.787C460.258 854.085 460.499 854.326 460.797 854.326Z" fill="black"/>
<path d="M469.075 854.326C469.373 854.326 469.614 854.085 469.614 853.787C469.614 853.489 469.373 853.248 469.075 853.248C468.778 853.248 468.536 853.489 468.536 853.787C468.536 854.085 468.778 854.326 469.075 854.326Z" fill="black"/>
<path d="M466.646 857.002V848.696H470.807" stroke="black" stroke-width="1.5"/>
<path d="M459.782 848.696H463.943" stroke="black" stroke-width="1.5"/>
<path d="M453.354 852.952V855.836C451.798 855.836 450.537 854.575 450.537 853.019C450.537 852.933 450.541 852.847 450.548 852.763C450.706 851.013 453.354 851.195 453.354 852.952Z" fill="#EDEEEF"/>
<path d="M453.354 855.836C451.798 855.836 450.537 854.575 450.537 853.019" stroke="black" stroke-width="1.5"/>
<path d="M464.827 859.05C463.252 859.05 461.976 857.773 461.976 856.198" stroke="#FF6498" stroke-width="1.5" stroke-linecap="round" stroke-linejoin="round"/>
<path d="M472.184 864.968L452.026 869.922" stroke="black" stroke-width="1.5"/>
<path d="M466.647 857.009L464.827 857.456" stroke="black" stroke-width="1.5" stroke-linecap="round"/>
<path d="M472.868 841.633C472.868 841.633 467.849 845.37 457.842 844.23C457.842 844.23 457.842 850.828 454.295 852.849" stroke="black" stroke-width="1.5"/>
<path d="M472.868 850.12C472.868 850.12 481.043 839.48 469.221 836.503C457.398 833.527 451.952 839.353 451.952 839.353C451.952 839.353 440.769 841.19 452.63 861.647" stroke="black" stroke-width="1.5"/>
<path d="M433.649 899.06V943.076L496.004 958.402V909.38C496.004 891.997 484.137 876.861 467.257 872.712H467.257C459.162 870.722 450.602 872.564 444.041 877.707C437.481 882.85 433.649 890.724 433.649 899.06V899.06Z" fill="#DC911B"/>
<path d="M485.864 945.569C485.864 945.569 493.535 1070.77 471.869 1130.05" stroke="black" stroke-width="1.5"/>
<path d="M440.195 881.38C440.195 881.38 406.223 926.452 420.185 953.037C434.147 979.622 501.505 939.61 502.265 932.517C503.025 925.424 487.183 929.224 487.183 929.224C487.183 929.224 489.092 916.304 480.985 928.97L450.537 932.264L460.416 908.45" stroke="black" stroke-width="1.5"/>
<path d="M453.851 924.276L450.537 932.264L473.362 929.795C468.056 927.014 461.332 925.053 453.851 924.276Z" fill="black"/>
<path d="M433.838 961.767C433.89 965.169 433.951 968.837 434.02 972.729C450.106 972.597 471.023 963.898 480.464 954.582L480.468 954.583C480.588 954.465 480.703 954.346 480.82 954.227C480.851 954.195 480.882 954.164 480.913 954.132C481.072 953.968 481.226 953.805 481.378 953.641C481.405 953.612 481.433 953.582 481.46 953.553C481.613 953.386 481.76 953.22 481.905 953.054C481.929 953.027 481.953 953 481.976 952.973C482.122 952.804 482.263 952.634 482.4 952.465C482.42 952.441 482.44 952.417 482.459 952.393C482.599 952.22 482.734 952.047 482.865 951.874C482.88 951.854 482.895 951.834 482.91 951.815C483.043 951.637 483.171 951.46 483.294 951.283C483.305 951.267 483.316 951.252 483.327 951.236C483.452 951.055 483.572 950.875 483.686 950.695C483.694 950.683 483.702 950.67 483.71 950.658C483.827 950.474 483.938 950.29 484.044 950.106L484.058 950.082C484.165 949.895 484.266 949.709 484.362 949.522L484.37 949.507C484.467 949.317 484.558 949.128 484.642 948.939L484.645 948.934C485.088 947.983 485.363 946.962 485.458 945.917C470.457 954.657 448.639 963.765 433.838 961.767Z" fill="black"/>
<path d="M477.869 929.307L478.371 927.77C479.589 924.047 482.772 921.307 486.635 920.658L507.555 917.14C510.936 916.572 514.276 918.343 515.702 921.46V921.46C515.771 921.611 515.931 921.697 516.094 921.673L559.772 915.158L560.323 913.286C560.553 912.507 561.315 912.011 562.12 912.117L570.962 913.276C571.734 913.378 572.312 914.036 572.312 914.815V915.88C572.312 916.518 571.922 917.09 571.329 917.324L563.877 920.258C562.867 920.656 561.716 920.349 561.038 919.501L560.152 918.394L516.441 925.963C516.328 925.982 516.23 926.053 516.177 926.154L516.012 926.463C513.169 931.808 508.042 935.563 502.088 936.66L498.069 937.4" stroke="black" stroke-width="1.5"/>
<path d="M475.622 875.853C475.622 875.853 493.462 883.434 519.682 920.631" stroke="black" stroke-width="1.5"/>
<path d="M496.004 946.957C496.004 946.957 526.331 957.597 534.691 949.744C543.052 941.89 545.585 920.631 545.585 920.631" stroke="black" stroke-width="1.5"/>
<path d="M545.585 917.274C545.585 917.274 547.421 899.013 547.231 893.693C547.231 893.693 550.371 895.403 553.171 894.453C553.171 894.453 555.021 897.493 556.351 897.303C557.681 897.113 557.111 890.843 551.981 884.383C546.851 877.923 523.999 877.965 517.28 917.274" stroke="black" stroke-width="1.5"/>
<path d="M443.34 1093.48C441.681 1088.83 436.82 1094.97 436.82 1094.97C436.82 1094.97 442.677 1082.53 436.82 1079.71C433.932 1078.32 432.411 1079.95 431.612 1081.97C434.609 1063.88 435.255 1028.99 423.161 1027.78C409.95 1026.45 414.47 1059.96 414.47 1059.96C414.47 1059.96 410.82 1050.34 406.174 1054.65C401.528 1058.97 410.488 1087.18 410.488 1087.18C409.492 1084.19 404.183 1081.87 402.192 1087.18C400.201 1092.49 407.833 1103.77 407.833 1103.77L434.049 1108.08C434.049 1108.08 445 1098.13 443.34 1093.48Z" fill="black"/>
<path d="M441.39 1135.96H403.851L395.55 1102.41H449.691L441.39 1135.96V1135.96Z" fill="#DC911B"/>
<path d="M362 1135.96H487.183" stroke="black" stroke-width="1.5"/>
<path d="M395.55 1102.41H449.691" stroke="black" stroke-width="1.5"/>
<path d="M744.915 1135.96H607.196L659.997 1018.42H744.915V1135.96V1135.96Z" fill="black"/>
<rect x="550.229" y="1119.17" width="89.8164" height="16.7906" fill="#EDEEEF"/>
<rect x="565.226" y="1102.38" width="89.8165" height="16.7908" fill="#EDEEEF"/>
<rect x="580.223" y="1085.59" width="89.8165" height="16.7908" fill="#EDEEEF"/>
<rect x="595.22" y="1068.8" width="89.8164" height="16.7906" fill="#EDEEEF"/>
<rect x="610.218" y="1052" width="89.8165" height="16.7907" fill="#EDEEEF"/>
<rect x="625.215" y="1035.21" width="89.8163" height="16.7907" fill="#EDEEEF"/>
<rect x="640.212" y="1018.42" width="89.8164" height="16.7907" fill="#EDEEEF"/>
<path d="M550.23 1119.17H640.046V1135.96H550.23" stroke="black" stroke-width="1.5"/>
<path d="M565.226 1102.38H655.043V1119.17H565.226" stroke="black" stroke-width="1.5"/>
<path d="M580.224 1085.59H670.04V1102.38H580.224" stroke="black" stroke-width="1.5"/>
<path d="M595.22 1068.8H685.037V1085.59H595.22" stroke="black" stroke-width="1.5"/>
<path d="M610.218 1052H700.034V1068.8H610.218" stroke="black" stroke-width="1.5"/>
<path d="M625.215 1035.21H715.031V1052" stroke="black" stroke-width="1.5"/>
<path d="M640.212 1018.42H730.028V1035.21H640.212" stroke="black" stroke-width="1.5"/>
<path d="M544.901 1135.96H750.243" stroke="black" stroke-width="1.5"/>
<path d="M728.83 31.7538C699.067 31.7538 673.598 19.0273 663.125 1.00008C652.652 19.0273 627.183 31.7538 597.42 31.7538C593.135 31.7553 588.853 31.4867 584.602 30.9498V129.357C584.602 152.638 597.022 174.149 617.183 185.789L663.125 212.314L709.067 185.789C729.228 174.149 741.648 152.638 741.648 129.357V30.9498C737.397 31.4867 733.115 31.7553 728.83 31.7538Z" fill="#EDEEEF"/>
<path d="M709.068 185.789C729.229 174.149 741.649 152.638 741.648 129.357V30.9498C737.397 31.4867 733.116 31.7552 728.83 31.7538C699.068 31.7538 673.598 19.0273 663.125 1V212.314L709.068 185.789Z" fill="#D6D6D6"/>
<path d="M663.125 212.314L709.068 185.789C729.229 174.149 741.649 152.637 741.648 129.357V30.9497C737.397 31.4867 733.116 31.7552 728.83 31.7538C699.068 31.7538 673.598 19.0273 663.125 1" stroke="black" stroke-width="1.5"/>
<path d="M598.69 303.828H574.918V293.77H550.629V281.883L532.541 265.881H505.151V219.706H469.492V162.558L424.532 202.333V278.225H400.759V311.843H390.94V302.456H373.37V321.23H610.576V314.343L598.69 303.828V303.828Z" fill="#F4F4F4"/>
<path d="M362 321.23H621.946" stroke="black" stroke-width="1.5"/>
<rect x="472.242" y="231.274" width="3.24777" height="2.87314" fill="white"/>
<rect x="480.144" y="231.274" width="3.24777" height="2.87314" fill="white"/>
<rect x="488.048" y="231.274" width="3.24774" height="2.87314" fill="white"/>
<rect x="472.242" y="239.021" width="3.24777" height="2.87323" fill="white"/>
<rect x="480.144" y="239.021" width="3.24777" height="2.87323" fill="white"/>
<rect x="488.048" y="239.021" width="3.24774" height="2.87323" fill="white"/>
<rect x="472.242" y="246.768" width="3.24777" height="2.87314" fill="white"/>
<rect x="480.144" y="246.768" width="3.24777" height="2.87314" fill="white"/>
<rect x="488.048" y="246.768" width="3.24774" height="2.87314" fill="white"/>
<rect x="472.242" y="254.514" width="3.24777" height="2.87311" fill="white"/>
<rect x="480.144" y="254.514" width="3.24777" height="2.87311" fill="white"/>
<rect x="488.048" y="254.514" width="3.24774" height="2.87311" fill="white"/>
<rect x="472.242" y="262.261" width="3.24777" height="2.87317" fill="white"/>
<rect x="480.144" y="262.261" width="3.24777" height="2.87317" fill="white"/>
<rect x="488.048" y="262.261" width="3.24774" height="2.87317" fill="white"/>
<rect x="472.242" y="270.008" width="3.24777" height="2.8732" fill="white"/>
<rect x="480.144" y="270.008" width="3.24777" height="2.8732" fill="white"/>
<rect x="488.048" y="270.008" width="3.24774" height="2.8732" fill="white"/>
<rect x="472.242" y="277.754" width="3.24777" height="2.8732" fill="white"/>
<rect x="480.144" y="277.754" width="3.24777" height="2.8732" fill="white"/>
<rect x="488.048" y="277.754" width="3.24774" height="2.8732" fill="white"/>
<rect x="472.242" y="285.501" width="3.24777" height="2.87314" fill="white"/>
<rect x="480.144" y="285.501" width="3.24777" height="2.87314" fill="white"/>
<rect x="488.048" y="285.501" width="3.24774" height="2.87314" fill="white"/>
<rect x="472.242" y="293.248" width="3.24777" height="2.8732" fill="white"/>
<rect x="480.144" y="293.248" width="3.24777" height="2.8732" fill="white"/>
<rect x="488.048" y="293.248" width="3.24774" height="2.8732" fill="white"/>
<path d="M542.05 131.358L511.782 126.654C511.782 126.654 489.479 233.064 501.448 312.45L497.918 320.28H538.02L549.407 199.191L542.05 131.358Z" fill="#E2E2E2"/>
<path d="M521.922 129.146C521.922 129.146 514.251 254.351 535.917 313.631L531.391 320.28H569.927C569.927 320.28 574.137 161.027 574.137 126.654L521.922 129.146Z" fill="#EDEEEF"/>
<path d="M521.922 129.146C521.922 129.146 514.251 254.351 535.917 313.631L531.391 320.28" stroke="black" stroke-width="1.5"/>
<path d="M549.407 32.2738V48.5454L529.249 53.4997V26.0404L549.407 21.0862V32.2738V32.2738Z" fill="#EDEEEF"/>
<path d="M538.02 37.9034C538.318 37.9034 538.559 37.6621 538.559 37.3645C538.559 37.0668 538.318 36.8255 538.02 36.8255C537.723 36.8255 537.481 37.0668 537.481 37.3645C537.481 37.6621 537.723 37.9034 538.02 37.9034Z" fill="black"/>
<path d="M546.298 37.9034C546.596 37.9034 546.837 37.6621 546.837 37.3645C546.837 37.0668 546.596 36.8255 546.298 36.8255C546 36.8255 545.759 37.0668 545.759 37.3645C545.759 37.6621 546 37.9034 546.298 37.9034Z" fill="black"/>
<path d="M543.869 40.5797V32.2738H548.03" stroke="black" stroke-width="1.5"/>
<path d="M537.005 32.2738H541.166" stroke="black" stroke-width="1.5"/>
<path d="M530.577 36.5295V39.4138C529.022 39.4138 527.76 38.1525 527.76 36.5967C527.76 36.5102 527.764 36.4248 527.772 36.3403C527.93 34.5909 530.577 34.773 530.577 36.5295Z" fill="#EDEEEF"/>
<path d="M530.577 39.4139C529.022 39.4139 527.76 38.1526 527.76 36.5967" stroke="black" stroke-width="1.5"/>
<path d="M542.05 42.6271C540.475 42.6271 539.198 41.3505 539.198 39.7758" stroke="#DC911B" stroke-width="1.5" stroke-linecap="round" stroke-linejoin="round"/>
<path d="M549.407 48.5452L529.25 53.4995" stroke="black" stroke-width="1.5"/>
<path d="M543.87 40.5862L542.05 41.0335" stroke="black" stroke-width="1.5" stroke-linecap="round"/>
<path d="M511.782 82.6374V126.654L574.137 141.98V92.9574C574.137 75.5749 562.27 60.4381 545.39 56.2893H545.39C537.295 54.2997 528.735 56.1417 522.174 61.2848C515.614 66.4279 511.782 74.3013 511.782 82.6373L511.782 82.6374Z" fill="#DC911B"/>
<path d="M549.407 30.9138C549.407 30.228 556.848 18.068 538.559 17.8147C520.27 17.5614 529.169 35.1165 529.169 35.1165" stroke="black" stroke-width="1.5"/>
<path d="M530.577 33.0464C530.577 33.0464 533.253 29.0564 533.443 27.4414C533.443 27.4414 546.528 27.6314 548.678 24.5914" stroke="black" stroke-width="1.5"/>
<path d="M527.947 68.6474L519.004 115.222L522.297 123.835L530.577 116.742L530.024 68.9879L532.937 64.8079H525.97L527.947 68.6474V68.6474Z" fill="black"/>
<path d="M561.544 64.808C561.544 64.808 635.283 136.501 555.863 181.721L547.37 168.421L564.603 123.835L548.03 100.781" stroke="black" stroke-width="1.5"/>
<path d="M555.864 181.721L539.363 155.881" stroke="black" stroke-width="1.5"/>
<path d="M516.619 67.1596C516.619 67.1596 480.429 123.282 505.163 165.865" stroke="black" stroke-width="1.5"/>
<path d="M630.862 111.048L635.564 106.346L659.555 130.336L654.853 135.039L630.862 111.048Z" fill="#DC911B"/>
<path d="M702.211 78.2756L706.913 82.9779L654.853 135.039L650.15 130.336L702.211 78.2756Z" fill="#DC911B"/>
<path d="M431.121 2.79373C420.105 2.77416 411.16 11.6882 411.14 22.7038L451.031 22.7748C451.051 11.7592 442.137 2.81333 431.121 2.79373Z" fill="#EDEEEF"/>
<path d="M472.672 11.4418C466.391 11.4306 461.291 16.5128 461.28 22.7931L484.023 22.8335C484.028 19.8176 482.835 16.9231 480.707 14.7867C478.578 12.6503 475.688 11.4471 472.672 11.4418V11.4418Z" fill="#EDEEEF"/>
<path d="M451.068 1.91742C439.549 1.89696 430.194 11.2185 430.174 22.7377L471.888 22.812C471.909 11.2927 462.587 1.93791 451.068 1.91742Z" fill="#EDEEEF"/>
<path d="M407.475 22.6974L489.464 22.8432" stroke="black" stroke-width="1.5"/>
<path d="M471.596 46.5035C480.726 46.4873 488.141 53.876 488.158 63.0066L455.093 63.0654C455.076 53.9348 462.465 46.5198 471.596 46.5035V46.5035Z" fill="#EDEEEF"/>
<path d="M437.155 53.6716C442.361 53.6624 446.588 57.8748 446.598 63.0805L427.746 63.114C427.742 60.6142 428.731 58.215 430.495 56.4442C432.26 54.6734 434.655 53.6761 437.155 53.6716Z" fill="#EDEEEF"/>
<path d="M455.062 45.7771C464.61 45.7601 472.364 53.4866 472.381 63.0346L437.804 63.0961C437.787 53.5481 445.514 45.7941 455.062 45.7771V45.7771Z" fill="#EDEEEF"/>
<path d="M491.195 63.0011L423.236 63.122" stroke="black" stroke-width="1.5"/>
<path d="M685.927 238.369C683.264 235.923 681.238 232.865 680.022 229.46C677.005 221.122 669.088 215.568 660.221 215.568C651.354 215.568 643.437 221.122 640.419 229.46C639.204 232.865 637.177 235.923 634.515 238.369C627.579 244.694 625.667 254.845 629.825 263.26C633.984 271.675 643.21 276.321 652.447 274.653C657.588 273.725 662.853 273.725 667.994 274.653C677.234 276.33 686.468 271.685 690.628 263.266C694.789 254.847 692.871 244.691 685.927 238.369H685.927Z" fill="#DC911B"/>
<path d="M652.447 274.653C657.588 273.725 662.853 273.725 667.994 274.653C674.135 275.762 680.451 274.091 685.241 270.092C690.031 266.093 692.802 260.176 692.807 253.937" stroke="black" stroke-width="1.5"/>
<path d="M618.054 321.23H702.387" stroke="black" stroke-width="1.5"/>
<path d="M660.221 260.045V321.23" stroke="black" stroke-width="1.5"/>
<path d="M669.152 251.113L660.221 260.045L651.289 251.113" stroke="black" stroke-width="1.5"/>
<path d="M624.949 274.902C623.46 273.534 622.327 271.825 621.648 269.921C619.96 265.259 615.534 262.154 610.576 262.154C605.619 262.154 601.192 265.259 599.505 269.921C598.826 271.825 597.693 273.534 596.204 274.902C592.326 278.438 591.257 284.114 593.582 288.819C595.907 293.523 601.066 296.121 606.23 295.189C609.104 294.67 612.048 294.67 614.923 295.189C620.089 296.126 625.251 293.529 627.578 288.822C629.904 284.115 628.831 278.437 624.949 274.902V274.902Z" fill="#DC911B"/>
<path d="M606.23 295.188C609.104 294.669 612.048 294.669 614.923 295.188C618.356 295.808 621.888 294.875 624.566 292.639C627.244 290.403 628.793 287.095 628.796 283.606" stroke="black" stroke-width="1.5"/>
<path d="M610.577 287.021V321.23" stroke="black" stroke-width="1.5"/>
<path d="M615.57 282.027L610.576 287.021L605.583 282.027" stroke="black" stroke-width="1.5"/>
<path d="M1299.38 530.895L1267.25 520.671L1266.23 724.521H1303.37L1299.38 715.602C1317.34 651.195 1299.38 530.895 1299.38 530.895Z" fill="#DC911B"/>
<path d="M1290.1 656.216C1290.1 608.471 1280.41 569.766 1268.45 569.766C1267.96 569.769 1267.47 569.835 1267 569.964L1266.23 724.521H1281.72C1286.82 708.705 1290.1 683.992 1290.1 656.216Z" fill="black"/>
<path d="M1288.78 533.387C1288.78 533.387 1296.46 658.592 1274.79 717.872L1279.32 724.521H1240.78C1240.78 724.521 1237.02 571.205 1237.02 536.832L1288.78 533.387Z" fill="#DC911B"/>
<path d="M1280.6 436.515V452.787L1260.44 457.741V430.282L1280.6 425.327V436.515V436.515Z" fill="#EDEEEF"/>
<path d="M1267.25 445.031C1267.25 445.031 1272.16 443.416 1273.77 445.886C1273.77 445.886 1275.82 443.588 1278.46 445.443" stroke="#DC911B" stroke-width="1.5" stroke-linecap="round" stroke-linejoin="round"/>
<path d="M1269.21 442.145C1269.51 442.145 1269.75 441.903 1269.75 441.606C1269.75 441.308 1269.51 441.067 1269.21 441.067C1268.92 441.067 1268.68 441.308 1268.68 441.606C1268.68 441.903 1268.92 442.145 1269.21 442.145Z" fill="black"/>
<path d="M1277.49 442.145C1277.79 442.145 1278.03 441.903 1278.03 441.606C1278.03 441.308 1277.79 441.067 1277.49 441.067C1277.2 441.067 1276.95 441.308 1276.95 441.606C1276.95 441.903 1277.2 442.145 1277.49 442.145Z" fill="black"/>
<path d="M1275.06 444.821V436.515H1279.23" stroke="black" stroke-width="1.5"/>
<path d="M1268.2 436.515H1272.36" stroke="black" stroke-width="1.5"/>
<path d="M1261.77 440.771V443.655C1260.22 443.655 1258.95 442.394 1258.95 440.838C1258.95 440.751 1258.96 440.666 1258.97 440.581C1259.12 438.832 1261.77 439.014 1261.77 440.771Z" fill="#EDEEEF"/>
<path d="M1261.77 443.655C1260.22 443.655 1258.95 442.394 1258.95 440.838" stroke="black" stroke-width="1.5"/>
<path d="M1272.62 446.868C1271.74 446.868 1271.02 446.155 1271.02 445.275" stroke="#DC911B" stroke-width="1.5" stroke-linecap="round" stroke-linejoin="round"/>
<path d="M1266.23 456.319L1260.44 457.741" stroke="black" stroke-width="1.5"/>
<path d="M1275.06 444.827L1273.24 445.275" stroke="black" stroke-width="1.5" stroke-linecap="round"/>
<path d="M1299.38 486.878V530.895L1237.02 546.221V497.198C1237.02 479.816 1248.89 464.679 1265.77 460.53H1265.77C1273.86 458.541 1282.42 460.383 1288.98 465.526C1295.55 470.669 1299.38 478.542 1299.38 486.878L1299.38 486.878Z" fill="#EDEEEF"/>
<path d="M1262.76 441.605C1262.76 441.605 1259.72 451.586 1266.82 456.779C1273.42 461.614 1283.83 458.783 1281.37 447.473C1280.86 445.113 1280.6 442.705 1280.6 440.29V439.616" stroke="#DC911B" stroke-width="1.5" stroke-linecap="round" stroke-linejoin="round"/>
<path d="M1260.36 439.359C1260.36 439.359 1253.66 427.079 1263.98 424.867C1263.98 424.867 1268.18 419.622 1274.15 422.162C1280.13 424.703 1282.99 422.92 1283.08 425.327C1283.16 427.735 1283.45 431.75 1280.6 433.799" stroke="#DC911B" stroke-width="1.5" stroke-linecap="round" stroke-linejoin="round"/>
<path d="M1264.54 439.358L1266.23 432.459C1266.23 432.459 1278.55 432.649 1280.6 429.292" stroke="#DC911B" stroke-width="1.5" stroke-linecap="round" stroke-linejoin="round"/>
<path d="M1288.78 533.387C1288.78 533.387 1296.46 658.592 1274.79 717.872L1279.32 724.521" stroke="black" stroke-width="1.5"/>
<path d="M1249.8 468.882C1249.8 468.882 1239.33 510.233 1252 525.686C1264.66 541.139 1323.94 532.019 1341.17 515.299C1341.17 515.299 1347.25 513.779 1348.52 510.739C1348.52 510.739 1354.34 515.046 1354.09 512.259C1353.84 509.473 1351.81 500.788 1341.42 502.977C1331.04 505.166 1280.6 506.179 1280.6 506.179L1281.74 484.393" stroke="black" stroke-width="1.5"/>
<path d="M1296.5 474.689C1296.5 474.689 1304.12 489.455 1303.14 505.544" stroke="black" stroke-width="1.5"/>
<path d="M1300.67 540.44C1300.67 540.44 1320.96 548.501 1329.55 522.907" stroke="black" stroke-width="1.5"/>
<path d="M1310.02 505.285C1310.02 505.285 1331.53 494.177 1334.84 498.833L1338.14 503.488" stroke="black" stroke-width="1.5"/>
<path d="M1511.02 421.468H1372.62V509.842L1328.12 554.344V724.521H1310.02" stroke="black" stroke-width="1.5"/>
<path d="M1333.03 725.471H1568.98" stroke="black" stroke-width="1.5"/>
<path d="M1541.07 723.615C1541.07 723.615 1545.14 716.422 1534.82 714.858C1528.68 713.91 1522.41 714.668 1516.68 717.047C1516.68 717.047 1523.87 708.291 1512.61 704.538C1501.35 700.785 1489.78 709.542 1489.78 709.542C1489.78 709.542 1501.04 688.588 1492.28 687.024C1483.53 685.461 1478.84 694.53 1478.84 694.53C1478.84 694.53 1479.78 668.573 1461.64 667.947C1443.5 667.322 1445.37 701.098 1445.37 701.098C1445.37 701.098 1437.56 686.086 1424.42 685.461C1411.29 684.835 1417.85 710.606 1417.85 710.606C1417.85 710.606 1415.35 704.538 1406.59 703.912C1397.84 703.287 1398.46 710.626 1398.46 710.626C1398.46 710.626 1387.2 694.843 1374.69 695.781C1362.19 696.719 1367.5 712.356 1367.5 712.356C1354.68 711.418 1351.86 725.471 1351.86 725.471H1550.14L1541.07 723.615Z" fill="black"/>
<rect x="1378.62" y="571.363" width="152.029" height="88.7808" fill="black"/>
<rect x="1358.99" y="551.73" width="152.029" height="88.7808" fill="#EDEEEF"/>
<path d="M1511.02 551.778V640.559L1358.99 640.463" stroke="black" stroke-width="1.5"/>
<path d="M1376.13 629.142C1379.28 629.142 1381.83 626.589 1381.83 623.44C1381.83 620.291 1379.28 617.739 1376.13 617.739C1372.98 617.739 1370.43 620.291 1370.43 623.44C1370.43 626.589 1372.98 629.142 1376.13 629.142Z" fill="#D6D6D6"/>
<path d="M1493.88 574.502C1497.03 574.502 1499.58 571.95 1499.58 568.801C1499.58 565.652 1497.03 563.099 1493.88 563.099C1490.73 563.099 1488.18 565.652 1488.18 568.801C1488.18 571.95 1490.73 574.502 1493.88 574.502Z" fill="#D6D6D6"/>
<path d="M1493.88 629.142C1497.03 629.142 1499.58 626.589 1499.58 623.44C1499.58 620.291 1497.03 617.739 1493.88 617.739C1490.73 617.739 1488.18 620.291 1488.18 623.44C1488.18 626.589 1490.73 629.142 1493.88 629.142Z" fill="#D6D6D6"/>
<path d="M1376.13 574.502C1379.28 574.502 1381.83 571.95 1381.83 568.801C1381.83 565.652 1379.28 563.099 1376.13 563.099C1372.98 563.099 1370.43 565.652 1370.43 568.801C1370.43 571.95 1372.98 574.502 1376.13 574.502Z" fill="#D6D6D6"/>
<rect x="1324.91" y="1258.84" width="234.172" height="145.31" fill="#EDEEEF"/>
<rect x="1389.33" y="1250.89" width="105.332" height="18.4989" fill="#FF6498"/>
<path d="M1441.99 1258.43C1445.94 1258.43 1449.14 1255.24 1449.14 1251.31C1449.14 1247.37 1445.94 1244.18 1441.99 1244.18C1438.05 1244.18 1434.85 1247.37 1434.85 1251.31C1434.85 1255.24 1438.05 1258.43 1441.99 1258.43Z" fill="#FF6498"/>
<rect x="1389.33" y="1250.89" width="105.332" height="18.4989" fill="#DC911B"/>
<path d="M1441.99 1258.43C1445.94 1258.43 1449.14 1255.24 1449.14 1251.31C1449.14 1247.37 1445.94 1244.18 1441.99 1244.18C1438.05 1244.18 1434.85 1247.37 1434.85 1251.31C1434.85 1255.24 1438.05 1258.43 1441.99 1258.43Z" fill="#DC911B"/>
<path d="M1494.66 1250.89V1269.38H1389.33" stroke="black" stroke-width="1.5" stroke-linecap="round" stroke-linejoin="round"/>
<path d="M1559.08 1258.84V1404.15H1324.91" stroke="black" stroke-width="1.5" stroke-linecap="round" stroke-linejoin="round"/>
<path d="M1315.25 1500.85H1568.74" stroke="black" stroke-width="1.5" stroke-linecap="round" stroke-linejoin="round"/>
<path d="M1379.54 1404.15L1341.24 1500.85" stroke="black" stroke-width="1.5" stroke-linecap="round" stroke-linejoin="round"/>
<path d="M1504.44 1404.15L1542.75 1500.85" stroke="black" stroke-width="1.5" stroke-linecap="round" stroke-linejoin="round"/>
<path d="M1353.24 1467.3H1530.74" stroke="black" stroke-width="1.5" stroke-linecap="round" stroke-linejoin="round"/>
<path d="M1216.74 1306.64L1235.65 1303.01C1226.91 1308.78 1226.65 1309 1217.1 1317.23L1216.74 1317.54C1216.74 1312.33 1216.74 1309.96 1216.74 1306.64Z" fill="black"/>
<path d="M1266.46 1435.57L1216.74 1412.97C1216.74 1412.97 1218.26 1400.5 1216.74 1382.48L1235.01 1379.48L1234.86 1391.8L1294.11 1424.35L1266.46 1435.57Z" fill="black"/>
<path d="M1216.74 1306.64L1235.65 1303.01C1226.91 1308.78 1226.65 1309 1217.1 1317.23L1216.74 1317.54C1216.74 1312.33 1216.74 1309.96 1216.74 1306.64Z" stroke="black"/>
<path d="M1266.46 1435.57L1216.74 1412.97C1216.74 1412.97 1218.26 1400.5 1216.74 1382.48L1235.01 1379.48L1234.86 1391.8L1294.11 1424.35L1266.46 1435.57Z" stroke="black"/>
<path d="M1311.72 1377.75C1311.72 1377.75 1372.97 1398.06 1396.08 1467.95L1406.22 1472.45L1373.54 1482.6L1320.56 1425.47L1283.13 1400.55" fill="#E2E2E2"/>
<path d="M1334.26 1498.36C1350.56 1386.98 1294.07 1382.56 1294.07 1382.56L1267.96 1425.47L1293.83 1424.36L1300.91 1510.52L1339.25 1507L1334.26 1498.36Z" fill="#EDEEEF"/>
<path d="M1334.26 1498.36C1350.56 1386.98 1294.07 1382.56 1294.07 1382.56" stroke="black" stroke-width="1.5" stroke-linecap="round" stroke-linejoin="round"/>
<path d="M1281.02 1367.4L1219.36 1382.56C1219.36 1382.56 1215.28 1429.85 1281.02 1425.47L1316.62 1375.63L1281.02 1367.4Z" fill="#EDEEEF"/>
<path d="M1281.02 1425.47L1316.62 1375.63" stroke="black" stroke-width="1.5" stroke-linecap="round" stroke-linejoin="round"/>
<path d="M1219.36 1382.56C1219.36 1382.56 1215.28 1429.85 1281.02 1425.47" stroke="black" stroke-width="1.5" stroke-linecap="round" stroke-linejoin="round"/>
<path d="M1237.93 1274.08V1281.03C1237.93 1286.4 1241.59 1291.07 1246.81 1292.35L1257.86 1295.07V1267.92L1248.67 1265.66C1246.08 1265.03 1243.35 1265.62 1241.25 1267.26C1239.15 1268.9 1237.93 1271.42 1237.93 1274.08V1274.08Z" fill="#EDEEEF"/>
<path d="M1237.93 1281.03C1237.93 1286.4 1241.59 1291.07 1246.81 1292.35L1257.86 1295.07" stroke="black" stroke-width="1.5" stroke-linecap="round" stroke-linejoin="round"/>
<path d="M1249.19 1279.65C1249.48 1279.65 1249.72 1279.41 1249.72 1279.12C1249.72 1278.82 1249.48 1278.58 1249.19 1278.58C1248.89 1278.58 1248.65 1278.82 1248.65 1279.12C1248.65 1279.41 1248.89 1279.65 1249.19 1279.65Z" fill="black"/>
<path d="M1241 1279.65C1241.29 1279.65 1241.53 1279.41 1241.53 1279.12C1241.53 1278.82 1241.29 1278.58 1241 1278.58C1240.71 1278.58 1240.47 1278.82 1240.47 1279.12C1240.47 1279.41 1240.71 1279.65 1241 1279.65Z" fill="black"/>
<path d="M1243.4 1282.3V1274.08H1239.29" stroke="black" stroke-width="1.5" stroke-linecap="round" stroke-linejoin="round"/>
<path d="M1250.19 1274.08H1246.08" stroke="black" stroke-width="1.5" stroke-linecap="round" stroke-linejoin="round"/>
<path d="M1256.54 1278.29V1281.14C1258.08 1281.14 1259.33 1279.9 1259.33 1278.36C1259.33 1278.27 1259.33 1278.19 1259.32 1278.1C1259.16 1276.37 1256.54 1276.55 1256.54 1278.29Z" fill="#EDEEEF"/>
<path d="M1256.54 1281.14C1258.08 1281.14 1259.33 1279.9 1259.33 1278.36" stroke="black" stroke-width="1.5" stroke-linecap="round" stroke-linejoin="round"/>
<path d="M1245.65 1283.26C1246 1283.6 1246.47 1283.8 1246.96 1283.8C1247.44 1283.8 1247.91 1283.6 1248.26 1283.26" stroke="#DC911B" stroke-width="1.5" stroke-linecap="round" stroke-linejoin="round"/>
<path d="M1243.4 1282.3L1245.2 1282.74" stroke="black" stroke-width="1.5" stroke-linecap="round" stroke-linejoin="round"/>
<path d="M1237.35 1271.17L1252.88 1271.92C1252.88 1271.92 1253.77 1277.01 1256.54 1277.56" stroke="black" stroke-width="1.5" stroke-linecap="round" stroke-linejoin="round"/>
<path d="M1237.35 1284.57L1230.34 1282.3C1230.34 1282.3 1230.71 1255.77 1253.26 1259.77C1253.26 1259.77 1267.54 1260.35 1269.04 1275.75C1270.54 1291.16 1270.31 1292.14 1270.31 1292.14L1257.86 1289.21" stroke="black" stroke-width="1.5" stroke-linecap="round" stroke-linejoin="round"/>
<path d="M1281.02 1323.88V1367.4L1219.36 1382.56V1334.08C1219.36 1316.9 1231.1 1301.93 1247.79 1297.83H1247.79C1255.79 1295.86 1264.25 1297.68 1270.74 1302.77C1277.23 1307.85 1281.02 1315.64 1281.02 1323.88V1323.88Z" fill="#DC911B"/>
<path d="M1237.35 1302.15C1237.35 1302.15 1196.58 1326.49 1181.93 1363.12C1167.27 1399.75 1241.05 1377.23 1241.05 1377.23C1241.05 1377.23 1253.04 1378.01 1257.55 1372.37L1263.02 1371.82L1262.38 1369.23L1216.79 1359.22L1237.93 1339.8" stroke="black" stroke-width="1.5" stroke-linecap="round" stroke-linejoin="round"/>
<path d="M1216.79 1359.22L1233.51 1362.89C1221.31 1358.38 1234.31 1343.12 1234.32 1343.12L1216.79 1359.22Z" fill="black"/>
<path d="M1242.7 1364.91C1242.19 1364.54 1240.78 1364.21 1238.21 1363.92L1242.7 1364.91Z" fill="black"/>
<path d="M1275.73 1307.88L1294.07 1335.67C1294.07 1335.67 1300.2 1302.61 1308.71 1299.6C1317.23 1296.59 1321.24 1295.07 1321.24 1295.07L1322.19 1298.08L1318.23 1302.15C1318.23 1302.15 1322.08 1310.62 1315.65 1312.63C1315.65 1312.63 1334.68 1366.69 1295.9 1370.84" stroke="black" stroke-width="1.5" stroke-linecap="round" stroke-linejoin="round"/>
<path d="M1296.99 1441.89C1296.99 1474.2 1270.8 1500.39 1238.49 1500.39C1206.18 1500.39 1179.99 1474.2 1179.99 1441.89C1179.99 1409.58 1206.18 1383.39 1238.49 1383.39C1270.8 1383.39 1296.99 1409.58 1296.99 1441.89Z" fill="#EDEEEF" stroke="#EDEEEF" stroke-width="1.5"/>
<circle cx="1234.22" cy="1442.36" r="65.926" stroke="black" stroke-width="1.5"/>
<ellipse cx="1230.43" cy="1442.36" rx="10.428" ry="10.428" fill="black"/>
<path d="M701 320.655C840.833 327.155 1124.9 384.755 1142.5 563.155C1160.1 741.555 1247.5 724.025 1311.5 724.525" stroke="black" stroke-width="1.5"/>
<path d="M1571 725.155C1603 754.989 1663.5 845.255 1649.5 967.655C1632 1120.66 1461 1203.66 1304 1208.16C1178.4 1211.76 881.667 1161.66 749 1136.16" stroke="black" stroke-width="1.5"/>
<path d="M366.5 1136.16C317 1143.99 135.5 1136.16 135.5 1353.66C135.5 1472.16 821.937 1815.71 1033 1674.5C1244.5 1533 1234 1501 1336 1501" stroke="black" stroke-width="1.5"/>
<path d="M363 321.235C270 321.235 73.9 293.555 -8.5 71.1553" stroke="black" stroke-width="1.5"/>
</svg>
